<svg width="30" height="30" viewBox="0 0 30 30" fill="none" xmlns="http://www.w3.org/2000/svg">
<mask id="mask0" mask-type="alpha" maskUnits="userSpaceOnUse" x="0" y="0" width="30" height="30">
<circle cx="15" cy="15" r="15" fill="#182CD1"/>
</mask>
<g mask="url(#mask0)">
<circle cx="15" cy="15" r="15" fill="white"/>
<path d="M20.7202 7.2002H9.2802C8.13152 7.2002 7.2002 8.13152 7.2002 9.2802V20.7202C7.2002 21.8689 8.13152 22.8002 9.2802 22.8002H20.7202C21.8689 22.8002 22.8002 21.8689 22.8002 20.7202V9.2802C22.8002 8.13152 21.8689 7.2002 20.7202 7.2002ZM13.5348 19.0396C13.7379 19.2426 13.7379 19.5718 13.5348 19.7748C13.3318 19.9779 13.0026 19.9779 12.7996 19.7748L11.8802 18.8555L10.9608 19.7748C10.7578 19.9779 10.4286 19.9779 10.2256 19.7748C10.0225 19.5718 10.0225 19.2426 10.2256 19.0396L11.1449 18.1202L10.2256 17.2008C10.0225 16.9978 10.0225 16.6686 10.2256 16.4656C10.4286 16.2625 10.7578 16.2625 10.9608 16.4656L11.8802 17.3849L12.7996 16.4656C13.0026 16.2625 13.3318 16.2625 13.5348 16.4656C13.7379 16.6686 13.7379 16.9978 13.5348 17.2008L12.6155 18.1202L13.5348 19.0396ZM13.7002 12.4002H12.4002V13.7002C12.4002 13.9872 12.1675 14.2202 11.8802 14.2202C11.5929 14.2202 11.3602 13.9872 11.3602 13.7002V12.4002H10.0602C9.7729 12.4002 9.5402 12.1672 9.5402 11.8802C9.5402 11.5929 9.7729 11.3602 10.0602 11.3602H11.3602V10.0602C11.3602 9.7729 11.5929 9.5402 11.8802 9.5402C12.1675 9.5402 12.4002 9.7729 12.4002 10.0602V11.3602H13.7002C13.9875 11.3602 14.2202 11.5929 14.2202 11.8802C14.2202 12.1672 13.9875 12.4002 13.7002 12.4002ZM19.9402 19.6802H16.3002C16.0129 19.6802 15.7802 19.4472 15.7802 19.1602C15.7802 18.8729 16.0129 18.6402 16.3002 18.6402H19.9402C20.2275 18.6402 20.4602 18.8729 20.4602 19.1602C20.4602 19.4472 20.2275 19.6802 19.9402 19.6802ZM19.9402 17.6002H16.3002C16.0129 17.6002 15.7802 17.3672 15.7802 17.0802C15.7802 16.7929 16.0129 16.5602 16.3002 16.5602H19.9402C20.2275 16.5602 20.4602 16.7929 20.4602 17.0802C20.4602 17.3672 20.2275 17.6002 19.9402 17.6002ZM19.9402 12.4002H16.3002C16.0129 12.4002 15.7802 12.1672 15.7802 11.8802C15.7802 11.5929 16.0129 11.3602 16.3002 11.3602H19.9402C20.2275 11.3602 20.4602 11.5929 20.4602 11.8802C20.4602 12.1672 20.2275 12.4002 19.9402 12.4002Z" fill="#182CD1"/>
<path fill-rule="evenodd" clip-rule="evenodd" d="M18.7697 42.1211L18.7697 30.5513L7.20046 30.5513C7.20046 36.9412 12.3798 42.1211 18.7697 42.1211ZM18.7697 28.3477L10.5881 20.1674C8.49471 22.2608 7.19987 25.1528 7.19987 28.3477L18.7697 28.3477ZM32.5767 27.169C32.5767 33.5588 27.3968 38.7382 21.0069 38.7382L21.0069 27.169L12.8253 18.9886C14.9194 16.8946 17.8119 15.5998 21.0069 15.5998C27.3968 15.5998 32.5767 20.7791 32.5767 27.169Z" fill="url(#paint0_linear)"/>
</g>
<defs>
<linearGradient id="paint0_linear" x1="11.6291" y1="10.1864" x2="30.1542" y2="41.3891" gradientUnits="userSpaceOnUse">
<stop stop-color="#20D7FF"/>
<stop offset="1" stop-color="#20D7FF" stop-opacity="0"/>
</linearGradient>
</defs>
</svg>
