<svg width="30" height="30" viewBox="0 0 30 30" fill="none" xmlns="http://www.w3.org/2000/svg">
<mask id="mask0" mask-type="alpha" maskUnits="userSpaceOnUse" x="0" y="0" width="30" height="30">
<circle cx="15" cy="15" r="15" fill="#182CD1"/>
</mask>
<g mask="url(#mask0)">
<circle cx="15" cy="15" r="15" fill="white"/>
<path d="M15 6C10.032 6 6 10.032 6 15C6 19.968 10.032 24 15 24C19.968 24 24 19.968 24 15C24 10.032 19.968 6 15 6ZM15 8.7C16.494 8.7 17.7 9.906 17.7 11.4C17.7 12.894 16.494 14.1 15 14.1C13.506 14.1 12.3 12.894 12.3 11.4C12.3 9.906 13.506 8.7 15 8.7ZM15 21.48C12.75 21.48 10.761 20.328 9.6 18.582C9.627 16.791 13.2 15.81 15 15.81C16.791 15.81 20.373 16.791 20.4 18.582C19.239 20.328 17.25 21.48 15 21.48Z" fill="#182CD1"/>
<path d="M5.40002 18.9L0.900024 22.2L9.90002 30.9L32.7 13.5L9.90002 24L5.40002 18.9Z" fill="url(#paint0_linear)"/>
</g>
<defs>
<linearGradient id="paint0_linear" x1="15.9" y1="4.2" x2="15.9" y2="32.4" gradientUnits="userSpaceOnUse">
<stop stop-color="#20D7FF"/>
<stop offset="1" stop-color="#20D7FF" stop-opacity="0.1"/>
</linearGradient>
</defs>
</svg>
