<svg width="14" height="11" viewBox="0 0 14 11" fill="none" xmlns="http://www.w3.org/2000/svg">
<path d="M7.99402 5.10488V1.22521C7.99402 0.724853 8.3943 0.309174 8.89466 0.309174H12.7743C13.2747 0.309174 13.6904 0.724853 13.6904 1.22521V6.98313C13.6904 8.86292 12.1447 10.3932 10.2649 10.3932H9.95695C9.76912 10.3932 9.62594 10.2501 9.62594 10.0622V8.89218C9.62594 8.70589 9.77682 8.55347 9.96465 8.55347C10.9977 8.55347 11.8429 7.70826 11.8429 6.67522V6.00552H8.89466C8.3943 6.00552 7.99402 5.60523 7.99402 5.10488Z" fill="#182CD1"/>
<path d="M8.30172 5.10477C8.30172 4.87076 8.30172 4.63675 8.30172 4.40427C8.30172 3.91162 8.30172 3.41896 8.30172 2.92784C8.30172 2.47983 8.30172 2.03336 8.30172 1.58535C8.30172 1.47605 8.30172 1.36674 8.30172 1.25743C8.30172 1.24819 8.30172 1.23895 8.30172 1.22972C8.30172 1.22818 8.30172 1.22664 8.30172 1.2251C8.30172 1.21124 8.30172 1.19585 8.30325 1.18199C8.30325 1.17121 8.30479 1.16044 8.30479 1.14966C8.30633 1.13427 8.31865 1.09886 8.30479 1.13734C8.2894 1.18045 8.31095 1.11117 8.31403 1.09578C8.31865 1.07576 8.32481 1.05575 8.33097 1.03573C8.33713 1.01572 8.34482 0.997245 8.35098 0.977231C8.35868 0.958756 8.371 0.955677 8.35098 0.975691C8.32635 1.00032 8.34944 0.981849 8.35714 0.966454C8.37715 0.931044 8.39717 0.895634 8.41872 0.861764C8.42026 0.858685 8.43412 0.837131 8.43566 0.837131C8.43874 0.837131 8.39409 0.883318 8.41872 0.858685C8.4372 0.84021 8.45413 0.817117 8.47261 0.798643C8.48646 0.784787 8.50186 0.769391 8.51571 0.757075C8.52649 0.747837 8.5773 0.715507 8.53881 0.735521C8.49878 0.757075 8.55574 0.724744 8.56498 0.718586C8.58499 0.70627 8.60501 0.693953 8.62656 0.681637C8.63272 0.678558 8.67737 0.650846 8.68199 0.653925C8.68352 0.655464 8.62194 0.677018 8.65581 0.664702C8.66505 0.661623 8.67429 0.657004 8.68506 0.653925C8.72355 0.640069 8.79283 0.638529 8.82516 0.618515C8.82516 0.618515 8.7605 0.624673 8.79591 0.621594C8.80669 0.621594 8.81747 0.620055 8.82824 0.618515C8.8498 0.616976 8.87135 0.616975 8.8929 0.615436C8.89444 0.615436 8.89444 0.615436 8.89598 0.615436C8.90522 0.615436 8.91292 0.615436 8.92215 0.615436C9.02992 0.615436 9.13923 0.615436 9.247 0.615436C9.69347 0.615436 10.1399 0.615436 10.5864 0.615436C11.0791 0.615436 11.5717 0.615436 12.0644 0.615436C12.2999 0.615436 12.5355 0.612357 12.771 0.615436C12.7895 0.615436 12.8064 0.615436 12.8249 0.616975C12.8357 0.616975 12.8465 0.618515 12.8573 0.620055C12.8788 0.621594 12.8834 0.63391 12.8588 0.620055C12.8326 0.604659 12.8403 0.616976 12.8603 0.621594C12.8742 0.624673 12.888 0.627752 12.9019 0.630831C12.925 0.63699 12.9496 0.643148 12.9727 0.650846C12.9835 0.653925 13.0466 0.678557 13.0035 0.661622C12.9604 0.643148 13.022 0.67086 13.0328 0.677018C13.0728 0.697032 13.1097 0.721665 13.1467 0.746298C13.1929 0.777089 13.1082 0.710888 13.1482 0.749377C13.1652 0.766312 13.1836 0.781708 13.2006 0.798643C13.2144 0.812499 13.2283 0.827894 13.2421 0.84329C13.2452 0.846369 13.2622 0.863304 13.2622 0.866383C13.2637 0.861764 13.2252 0.812499 13.2514 0.852527C13.2745 0.886397 13.2976 0.920267 13.316 0.957217C13.3253 0.974152 13.3314 0.998784 13.3437 1.01264C13.3422 1.0111 13.3222 0.955677 13.333 0.986468C13.3376 1.00032 13.3422 1.01264 13.3468 1.02496C13.3591 1.06037 13.3607 1.12657 13.3792 1.15736C13.3792 1.15736 13.373 1.0927 13.3761 1.12811C13.3776 1.13888 13.3776 1.14966 13.3792 1.16044C13.3807 1.18199 13.3807 1.20354 13.3822 1.2251C13.3822 1.22818 13.3822 1.23126 13.3822 1.23434C13.3822 1.25743 13.3822 1.28052 13.3822 1.30362C13.3822 1.5792 13.3822 1.85631 13.3822 2.13189C13.3822 2.59992 13.3822 3.06794 13.3822 3.53597C13.3822 4.0548 13.3822 4.57362 13.3822 5.09245C13.3822 5.52045 13.3822 5.94691 13.3822 6.3749C13.3822 6.57504 13.3822 6.77518 13.3822 6.97533C13.3822 7.08463 13.3776 7.19394 13.3668 7.30325C13.3653 7.3248 13.3622 7.34482 13.3607 7.36637C13.3591 7.37715 13.3576 7.38793 13.3576 7.39716C13.3545 7.43257 13.3622 7.36791 13.3622 7.36791C13.353 7.41564 13.3468 7.4649 13.3391 7.51263C13.3237 7.59884 13.3037 7.68352 13.2822 7.76666C13.2591 7.85287 13.2329 7.93909 13.2021 8.02376C13.1883 8.06225 13.1744 8.10074 13.159 8.13923C13.1544 8.15 13.1313 8.21313 13.1467 8.16848C13.1621 8.12537 13.1359 8.19465 13.1298 8.20697C13.0574 8.36862 12.9727 8.52258 12.8757 8.67037C12.8295 8.74119 12.7803 8.80893 12.7295 8.87667C12.7095 8.90438 12.7464 8.85358 12.7464 8.85512C12.7449 8.86128 12.7325 8.87359 12.7279 8.87821C12.7156 8.89361 12.7018 8.909 12.6894 8.92594C12.6586 8.96289 12.6279 8.9983 12.5971 9.03371C12.4816 9.16149 12.3569 9.28004 12.2245 9.38934C12.2091 9.40166 12.1937 9.41552 12.1768 9.42783C12.1321 9.46478 12.2214 9.3955 12.1752 9.42937C12.1398 9.45554 12.1044 9.48172 12.069 9.50635C11.9966 9.55716 11.9227 9.60488 11.8473 9.64953C11.7719 9.69418 11.6933 9.73574 11.6148 9.77577C11.5779 9.79425 11.5409 9.81118 11.504 9.82812C11.4932 9.83273 11.4316 9.86045 11.4747 9.84043C11.5178 9.82196 11.447 9.85121 11.4362 9.85583C11.2731 9.92049 11.1037 9.97283 10.9328 10.0113C10.8435 10.0313 10.7542 10.0467 10.6649 10.0606C10.6295 10.0652 10.6942 10.056 10.6942 10.056C10.6834 10.056 10.6726 10.059 10.6618 10.059C10.6403 10.0621 10.6203 10.0637 10.5987 10.0652C10.5495 10.0698 10.4987 10.0744 10.4494 10.076C10.3262 10.0821 10.2046 10.0806 10.0814 10.0806C10.0399 10.0806 9.99984 10.0791 9.95827 10.0806C9.95827 10.0806 9.93672 10.0791 9.93672 10.0806C9.94288 10.0744 9.99368 10.0991 9.96751 10.0852C9.95981 10.0821 9.94596 10.0791 9.93826 10.0775C9.8813 10.0652 9.95981 10.0791 9.95673 10.0852C9.95673 10.0852 9.93364 10.0714 9.9321 10.0698C9.90439 10.0514 9.95673 10.0883 9.95519 10.0883C9.95519 10.0883 9.93518 10.0698 9.93518 10.0683C9.91055 10.036 9.97059 10.1191 9.9475 10.0852C9.94596 10.0837 9.9321 10.0606 9.9321 10.0606C9.93672 10.059 9.94904 10.1222 9.94442 10.0883C9.94288 10.0775 9.9244 10.0113 9.93518 10.059C9.94442 10.1006 9.93672 10.0652 9.93826 10.0514C9.93826 10.0267 9.93826 10.0036 9.93826 9.97899C9.93826 9.87738 9.93826 9.77731 9.93826 9.6757C9.93826 9.44169 9.93826 9.20768 9.93826 8.97366C9.93826 8.94903 9.93826 8.92286 9.93826 8.89823C9.93826 8.89515 9.93826 8.89053 9.93826 8.88745V8.8659C9.93672 8.87205 9.93672 8.87975 9.93518 8.88591C9.93056 8.91208 9.9321 8.91208 9.93672 8.88591C9.93826 8.88283 9.93826 8.87975 9.9398 8.87667C9.94442 8.86128 9.94288 8.86282 9.93518 8.88437C9.92594 8.90438 9.9244 8.90746 9.9321 8.89361C9.93518 8.88745 9.93826 8.88129 9.94134 8.87513C9.94288 8.87359 9.95673 8.84896 9.95673 8.84896C9.95519 8.84896 9.92132 8.89977 9.9398 8.87205C9.94134 8.87051 9.96135 8.8505 9.96135 8.8505C9.96597 8.85512 9.90593 8.88129 9.93826 8.86898C9.94596 8.8659 9.95673 8.8582 9.96443 8.85358C9.99368 8.8351 9.97367 8.85974 9.96443 8.85204C9.95827 8.85512 9.95212 8.8582 9.94596 8.85974C9.95212 8.8582 9.95981 8.85666 9.96597 8.85358C9.97213 8.85204 9.97983 8.8505 9.98599 8.84896C9.97213 8.8505 9.95981 8.85358 9.94596 8.85512C9.96597 8.86897 10.0614 8.85204 10.0861 8.8505C10.1322 8.84742 10.1784 8.8428 10.2231 8.83664C10.6372 8.78276 11.0098 8.62419 11.3377 8.36554C11.6425 8.12537 11.8642 7.8036 12.0074 7.44489C12.1213 7.16315 12.1537 6.86294 12.1537 6.56273C12.1537 6.3749 12.1537 6.18554 12.1537 5.99771C12.1537 5.83144 12.012 5.6898 11.8458 5.6898C11.3901 5.6898 10.9343 5.6898 10.4786 5.6898C9.95827 5.6898 9.4379 5.69134 8.91754 5.6898C8.88367 5.6898 8.80669 5.70212 8.78975 5.68364C8.79437 5.6898 8.85441 5.69442 8.80977 5.68518C8.78975 5.68056 8.76974 5.67748 8.74819 5.67133C8.71893 5.66363 8.68968 5.65131 8.66043 5.64361C8.61886 5.63284 8.72817 5.67748 8.66813 5.64669C8.65273 5.63899 8.63734 5.6313 8.62348 5.6236C8.59731 5.60974 8.57114 5.59435 8.5465 5.57741C8.54804 5.57741 8.51417 5.5574 8.51417 5.55432C8.5465 5.58049 8.5542 5.58665 8.53727 5.57125C8.52957 5.5651 8.52187 5.55894 8.51417 5.55124C8.48954 5.52969 8.46645 5.50505 8.44335 5.48042C8.44028 5.4758 8.41718 5.45117 8.41718 5.44963C8.41564 5.45271 8.45875 5.51121 8.42334 5.45579C8.40487 5.42808 8.38639 5.40036 8.371 5.36957C8.36484 5.35726 8.35868 5.34494 8.35252 5.33416C8.32327 5.27566 8.35098 5.34186 8.3556 5.34186C8.34636 5.34186 8.32635 5.25411 8.32327 5.24487C8.32019 5.23101 8.31711 5.2187 8.31403 5.20484C8.31249 5.19406 8.30941 5.18483 8.30787 5.17405C8.30326 5.15096 8.30479 5.16019 8.31095 5.2033C8.29556 5.20176 8.30172 5.12017 8.30172 5.10477C8.30018 4.94312 8.16162 4.78916 7.99381 4.79686C7.82907 4.80456 7.68436 4.93234 7.68589 5.10477C7.68897 5.41268 7.8029 5.70366 8.01074 5.93151C8.21704 6.15782 8.50648 6.28099 8.80823 6.31024C8.96988 6.32563 9.13615 6.31486 9.29781 6.31486C9.95981 6.31486 10.6234 6.31486 11.2854 6.31486C11.4701 6.31486 11.6564 6.31486 11.8411 6.31486C11.738 6.21171 11.6364 6.1101 11.5332 6.00695C11.5332 6.20555 11.5332 6.40569 11.5332 6.60429C11.5332 6.62893 11.5332 6.65202 11.5332 6.67665C11.5332 6.71668 11.5317 6.75517 11.5302 6.7952C11.5286 6.81983 11.5271 6.84446 11.524 6.8691C11.5225 6.87987 11.5209 6.89065 11.5209 6.90143C11.5163 6.94454 11.5317 6.83985 11.524 6.88295C11.5071 6.97225 11.4901 7.06 11.4624 7.14622C11.4486 7.18932 11.4347 7.23089 11.4178 7.27246C11.4147 7.2817 11.4101 7.29093 11.407 7.30171C11.3947 7.33404 11.4178 7.274 11.4178 7.27554C11.4224 7.28478 11.3916 7.33096 11.387 7.3402C11.3469 7.4218 11.3008 7.50185 11.25 7.57729C11.2392 7.59423 11.2269 7.60962 11.2145 7.62656C11.1822 7.67274 11.25 7.58499 11.213 7.6281C11.1838 7.66505 11.153 7.70046 11.1206 7.73587C11.0606 7.80053 10.9975 7.86057 10.9297 7.91599C10.922 7.92215 10.9143 7.92831 10.9066 7.93447C10.8805 7.95602 10.9297 7.91599 10.9282 7.91753C10.9267 7.92677 10.8866 7.94832 10.8789 7.95294C10.8404 7.98065 10.8004 8.00529 10.7604 8.02992C10.7219 8.05301 10.6834 8.07303 10.6449 8.09304C10.6264 8.10228 10.608 8.10998 10.5895 8.11921C10.5864 8.12075 10.5649 8.13307 10.5618 8.13153C10.5679 8.13461 10.6234 8.1069 10.5787 8.12383C10.4956 8.15616 10.4109 8.18387 10.3231 8.20543C10.2785 8.21621 10.2354 8.22544 10.1907 8.23314C10.1815 8.23468 10.1692 8.23468 10.16 8.23776C10.16 8.23776 10.2246 8.23006 10.1892 8.23314C10.1615 8.23622 10.1322 8.2393 10.1045 8.24084C9.99368 8.24854 9.87822 8.2393 9.77045 8.27625C9.50103 8.36708 9.32552 8.60879 9.31782 8.89207C9.31628 8.94595 9.31782 8.9983 9.31782 9.05218C9.31782 9.30159 9.31782 9.54946 9.31782 9.79886C9.31782 10.0637 9.30242 10.3408 9.52566 10.5348C9.68115 10.6703 9.85974 10.701 10.0583 10.701C10.1815 10.701 10.3047 10.7026 10.4263 10.698C11.2192 10.661 11.9658 10.3731 12.5894 9.88508C13.1775 9.42475 13.6162 8.7766 13.8364 8.06379C13.9611 7.66197 13.9981 7.24475 13.9981 6.82599C13.9981 6.49653 13.9981 6.1686 13.9981 5.83914C13.9981 5.34032 13.9981 4.84151 13.9981 4.34269C13.9981 3.82232 13.9981 3.30041 13.9981 2.78005C13.9981 2.38438 13.9981 1.98872 13.9981 1.59305C13.9981 1.32671 14.0196 1.04651 13.9165 0.794024C13.7348 0.350633 13.3468 0.0581181 12.8711 0.00577334C12.7834 -0.00346397 12.6941 0.00115464 12.6063 0.00115464C12.2014 0.00115464 11.795 0.00115464 11.3901 0.00115464C10.8712 0.00115464 10.3524 0.00115464 9.83357 0.00115464C9.52874 0.00115464 9.22237 0.00115464 8.91754 0.00115464C8.23398 0.00269419 7.68897 0.558472 7.68743 1.23895C7.68589 1.53301 7.68743 1.8286 7.68743 2.12266C7.68743 2.63995 7.68743 3.15724 7.68743 3.67453C7.68743 4.08867 7.68743 4.50127 7.68743 4.91541C7.68743 4.97853 7.68743 5.04165 7.68743 5.10477C7.68743 5.26642 7.82907 5.42038 7.99534 5.41268C8.16008 5.40498 8.30172 5.2772 8.30172 5.10477Z" fill="#182CD1"/>
<path d="M0.311768 5.10488V1.22521C0.311768 0.724853 0.712051 0.309174 1.21241 0.309174H5.09208C5.59243 0.309174 6.00811 0.724853 6.00811 1.22521V6.98313C6.00811 8.86292 4.4624 10.3932 2.58261 10.3932H2.2747C2.08687 10.3932 1.94369 10.2501 1.94369 10.0622V8.89218C1.94369 8.70589 2.09457 8.55347 2.28239 8.55347C3.31543 8.55347 4.16065 7.70826 4.16065 6.67522V6.00552H1.21241C0.712051 6.00552 0.311768 5.60523 0.311768 5.10488Z" fill="#182CD1"/>
<path d="M0.619584 5.1046C0.619584 4.87059 0.619584 4.63658 0.619584 4.4041C0.619584 3.90991 0.619584 3.41417 0.619584 2.91997C0.619584 2.47504 0.619584 2.03011 0.619584 1.58518C0.619584 1.47587 0.619584 1.36503 0.619584 1.25572C0.619584 1.24648 0.619584 1.23878 0.619584 1.22955C0.619584 1.22801 0.619584 1.22647 0.619584 1.22493C0.619584 1.20645 0.619584 1.18952 0.621124 1.17104C0.621124 1.16027 0.622663 1.14949 0.624203 1.13871C0.627282 1.09407 0.628821 1.14487 0.621124 1.15719C0.638059 1.12486 0.638059 1.07097 0.650375 1.03556C0.656533 1.01555 0.664231 0.997074 0.670389 0.97706C0.678087 0.958585 0.690404 0.955506 0.670389 0.97552C0.645757 1.00015 0.66885 0.981679 0.676547 0.966283C0.698101 0.927794 0.721195 0.889306 0.744288 0.852356C0.775079 0.80463 0.707339 0.892385 0.745827 0.850817C0.761223 0.833882 0.776618 0.815407 0.793554 0.798472C0.807409 0.784616 0.822805 0.76922 0.836661 0.756904C0.847438 0.747667 0.898243 0.715336 0.859754 0.73535C0.819726 0.756904 0.876689 0.724573 0.885927 0.718415C0.90902 0.70302 0.932113 0.690703 0.956746 0.676847C0.967523 0.670689 1.02141 0.636819 0.984458 0.661452C0.949048 0.684545 0.999853 0.656833 1.01525 0.650675C1.0522 0.638358 1.11532 0.636819 1.14611 0.618344C1.14611 0.618344 1.08145 0.624503 1.11686 0.621423C1.12764 0.621423 1.13841 0.619884 1.14919 0.618344C1.17074 0.616805 1.1923 0.616805 1.21385 0.615265C1.21539 0.615265 1.21693 0.615265 1.21847 0.615265C1.22771 0.615265 1.2354 0.615265 1.24464 0.615265C1.35395 0.615265 1.4648 0.615265 1.57411 0.615265C2.01904 0.615265 2.46397 0.615265 2.9089 0.615265C3.40309 0.615265 3.89883 0.615265 4.39303 0.615265C4.62704 0.615265 4.86105 0.612186 5.09352 0.615265C5.11508 0.615265 5.13663 0.616805 5.15818 0.618344C5.16896 0.619884 5.17974 0.619884 5.19051 0.621423C5.22592 0.624503 5.16126 0.618344 5.16126 0.618344C5.19513 0.639898 5.26441 0.641437 5.3029 0.653754C5.31214 0.656833 5.32292 0.661452 5.33215 0.664531C5.36448 0.675308 5.30752 0.653754 5.30598 0.653754C5.31984 0.66607 5.34601 0.672229 5.3614 0.681466C5.40143 0.70302 5.43684 0.729192 5.47379 0.752285C5.50304 0.77076 5.44916 0.73535 5.45224 0.73535C5.45532 0.73535 5.47379 0.752285 5.47533 0.755364C5.49073 0.76922 5.50612 0.783076 5.51998 0.796932C5.53691 0.813867 5.55231 0.832342 5.56924 0.849277C5.57694 0.856975 5.60003 0.87545 5.57078 0.849277C5.54153 0.823105 5.56924 0.847738 5.57694 0.858514C5.60003 0.892385 5.62159 0.927794 5.64006 0.963204C5.64468 0.973981 5.67239 1.03402 5.65546 0.992455C5.63852 0.950888 5.6647 1.02017 5.66931 1.03402C5.67547 1.05404 5.68163 1.07405 5.68625 1.09407C5.68933 1.10484 5.69087 1.11408 5.69241 1.12486C5.69703 1.14333 5.7155 1.1695 5.69549 1.13563C5.68163 1.111 5.69395 1.11562 5.69549 1.13717C5.69703 1.14795 5.69703 1.15873 5.69857 1.1695C5.70011 1.18798 5.70011 1.20491 5.70011 1.22339C5.70011 1.22647 5.70011 1.22955 5.70011 1.23263C5.70011 1.25572 5.70011 1.28035 5.70011 1.30345C5.70011 1.58056 5.70011 1.85614 5.70011 2.13326C5.70011 2.60129 5.70011 3.06777 5.70011 3.5358C5.70011 4.05309 5.70011 4.57191 5.70011 5.0892C5.70011 5.5172 5.70011 5.94673 5.70011 6.37473C5.70011 6.57487 5.70011 6.77347 5.70011 6.97362C5.70011 7.08292 5.69549 7.19223 5.68471 7.30154C5.68317 7.32309 5.68009 7.34311 5.67855 7.36466C5.67701 7.37544 5.67547 7.38622 5.67547 7.39545C5.67239 7.43086 5.68009 7.3662 5.68009 7.3662C5.67085 7.41085 5.66623 7.45703 5.65854 7.50168C5.64314 7.59098 5.62313 7.67873 5.60003 7.76649C5.57848 7.84962 5.55231 7.93276 5.5246 8.01281C5.5092 8.05438 5.49381 8.09595 5.47841 8.13752C5.47379 8.14829 5.4507 8.21142 5.46609 8.16677C5.48149 8.12366 5.45532 8.19294 5.44916 8.20526C5.37834 8.36383 5.2952 8.51471 5.20129 8.66096C5.15356 8.73486 5.10122 8.80568 5.05041 8.8765C5.0304 8.90421 5.06735 8.85341 5.06735 8.85495C5.06581 8.86111 5.05349 8.87342 5.04887 8.87804C5.03656 8.89344 5.0227 8.90883 5.01039 8.92577C4.98267 8.95964 4.95342 8.99197 4.92417 9.02584C4.81024 9.15362 4.68554 9.27371 4.55314 9.38301C4.53466 9.39841 4.51619 9.41227 4.49772 9.42766C4.45307 9.46461 4.54236 9.39533 4.49618 9.4292C4.46077 9.45537 4.42536 9.48155 4.38995 9.50618C4.31759 9.55698 4.24369 9.60471 4.16825 9.64936C4.09589 9.69246 4.02045 9.73249 3.94502 9.77098C3.90807 9.78946 3.87112 9.80639 3.83417 9.82333C3.82493 9.82795 3.75103 9.86028 3.79568 9.84026C3.83879 9.82179 3.76797 9.85104 3.75719 9.85566C3.594 9.92032 3.42465 9.97266 3.25376 10.0112C3.16446 10.0312 3.07517 10.0466 2.98588 10.0604C2.95047 10.065 3.01513 10.0558 3.01513 10.0558C3.00435 10.0558 2.99357 10.0589 2.9828 10.0589C2.96124 10.062 2.94123 10.0635 2.91967 10.065C2.87349 10.0697 2.8273 10.0727 2.78111 10.0758C2.65795 10.0835 2.53325 10.082 2.41008 10.082C2.36698 10.082 2.32233 10.0804 2.27922 10.082C2.22534 10.0835 2.31001 10.0943 2.28692 10.0851C2.27922 10.082 2.2669 10.0789 2.25767 10.0774C2.22226 10.0697 2.25767 10.0774 2.25767 10.0789C2.26383 10.082 2.26998 10.0835 2.27614 10.0866C2.26998 10.0835 2.26537 10.0804 2.25921 10.0774C2.26998 10.0712 2.19762 10.062 2.25921 10.0789C2.2823 10.085 2.27768 10.0927 2.26075 10.0774C2.22072 10.0404 2.28692 10.1174 2.2669 10.0866C2.26537 10.085 2.25151 10.062 2.25151 10.062C2.25613 10.0604 2.26844 10.1235 2.26383 10.0897C2.26229 10.0789 2.24381 10.0127 2.25459 10.0604C2.26383 10.102 2.25613 10.0666 2.25767 10.0527C2.25767 10.0281 2.25767 10.005 2.25767 9.98036C2.25767 9.87875 2.25767 9.77868 2.25767 9.67707C2.25767 9.4446 2.25767 9.21212 2.25767 8.97965C2.25767 8.95348 2.25767 8.92577 2.25767 8.8996C2.25767 8.89652 2.25767 8.8919 2.25767 8.88882C2.25613 8.83493 2.24535 8.92269 2.25459 8.89652C2.27768 8.83032 2.22842 8.92731 2.25459 8.8842C2.25767 8.87958 2.27306 8.84879 2.27614 8.85033C2.2746 8.85033 2.24073 8.90113 2.25921 8.87342C2.26075 8.87188 2.28076 8.85187 2.28076 8.85187C2.28538 8.85649 2.22534 8.88266 2.25767 8.87034C2.26536 8.86726 2.27614 8.85957 2.28384 8.85495C2.31309 8.83647 2.29308 8.86111 2.28384 8.85341C2.27768 8.85649 2.27152 8.85957 2.26536 8.86111C2.27152 8.85957 2.27922 8.85803 2.28538 8.85495C2.29154 8.85341 2.29924 8.85187 2.30539 8.85033C2.29154 8.85187 2.27922 8.85495 2.26536 8.85649C2.28384 8.87034 2.37005 8.85341 2.39469 8.85341C2.44395 8.85033 2.49322 8.84571 2.54248 8.83955C2.95662 8.78567 3.3292 8.62709 3.65712 8.36845C3.96195 8.12828 4.18365 7.80651 4.32682 7.4478C4.44075 7.16606 4.47308 6.86585 4.47308 6.56563C4.47308 6.37781 4.47308 6.18844 4.47308 6.00062C4.47308 5.83435 4.33144 5.69271 4.16517 5.69271C3.70946 5.69271 3.25376 5.69271 2.79805 5.69271C2.27768 5.69271 1.75731 5.69425 1.23694 5.69271C1.20307 5.69271 1.1261 5.70502 1.10916 5.68655C1.11378 5.69271 1.17382 5.69733 1.12918 5.68809C1.10916 5.68347 1.08915 5.68039 1.06759 5.67423C1.03834 5.66654 1.00909 5.65422 0.979839 5.64652C0.938271 5.63574 1.04758 5.68039 0.987537 5.6496C0.972142 5.6419 0.956746 5.63421 0.94289 5.62651C0.916718 5.61265 0.890545 5.59726 0.865912 5.58032C0.867452 5.58032 0.833582 5.56031 0.833582 5.55723C0.865912 5.5834 0.87361 5.58956 0.856675 5.57416C0.848977 5.568 0.84128 5.56185 0.833582 5.55415C0.808949 5.53259 0.785856 5.50796 0.762762 5.48333C0.759683 5.47871 0.73659 5.45408 0.73659 5.45254C0.73505 5.45562 0.778158 5.51412 0.742748 5.4587C0.724274 5.43098 0.705799 5.40327 0.690403 5.37248C0.684245 5.36017 0.678087 5.34785 0.671929 5.33707C0.642677 5.27857 0.670389 5.34477 0.675008 5.34477C0.665771 5.34477 0.645756 5.25701 0.642677 5.24778C0.639598 5.23392 0.636519 5.22161 0.63344 5.20775C0.631901 5.19697 0.628821 5.18774 0.627282 5.17696C0.622663 5.15386 0.624203 5.1631 0.630361 5.20621C0.613426 5.20159 0.619584 5.11999 0.619584 5.1046C0.618045 4.94295 0.479485 4.78899 0.311674 4.79669C0.146942 4.80439 0.00222381 4.93217 0.00376336 5.1046C0.00684246 5.41251 0.120769 5.70349 0.328609 5.93134C0.534909 6.15765 0.824344 6.28082 1.1261 6.31007C1.28775 6.32546 1.45402 6.31469 1.61567 6.31469C2.27768 6.31469 2.94123 6.31469 3.60324 6.31469C3.78798 6.31469 3.97427 6.31469 4.15901 6.31469C4.05586 6.21154 3.95425 6.10993 3.8511 6.00678C3.8511 6.20538 3.8511 6.40552 3.8511 6.60412C3.8511 6.62876 3.8511 6.65185 3.8511 6.67648C3.8511 6.71959 3.84956 6.7627 3.84648 6.8058C3.84495 6.82736 3.84341 6.84891 3.84033 6.86893C3.83879 6.8797 3.83725 6.89048 3.83725 6.90126C3.83263 6.94436 3.84802 6.83967 3.84033 6.88278C3.82339 6.97208 3.80646 7.05983 3.77874 7.14604C3.76489 7.18915 3.75103 7.23072 3.7341 7.27229C3.73102 7.28153 3.7264 7.29076 3.72332 7.30154C3.711 7.33387 3.7341 7.27383 3.7341 7.27537C3.73872 7.2846 3.70792 7.33079 3.70331 7.34003C3.66328 7.42163 3.61709 7.50168 3.56629 7.57712C3.55551 7.59405 3.54319 7.60945 3.53088 7.62639C3.49855 7.67257 3.56629 7.58482 3.52934 7.62793C3.50009 7.66487 3.46929 7.70028 3.43696 7.73569C3.37692 7.80036 3.3138 7.8604 3.24606 7.91582C3.23836 7.92198 3.23066 7.92814 3.22297 7.9343C3.19679 7.95585 3.24606 7.91582 3.24452 7.91736C3.24298 7.9266 3.19371 7.95431 3.18756 7.95893C3.15215 7.98356 3.11366 8.00819 3.07671 8.02975C3.03822 8.05284 2.99973 8.07286 2.96124 8.09287C2.94277 8.10211 2.92429 8.1098 2.90582 8.11904C2.90274 8.12058 2.88119 8.1329 2.87811 8.13136C2.88426 8.13444 2.93969 8.10673 2.89504 8.12366C2.80883 8.15753 2.72107 8.18678 2.63024 8.20834C2.59021 8.21757 2.54864 8.22681 2.50707 8.23297C2.49784 8.23451 2.48552 8.23451 2.47628 8.23759C2.47628 8.23759 2.54094 8.22989 2.50554 8.23297C2.47782 8.23605 2.44857 8.23913 2.42086 8.24067C2.31001 8.24836 2.19455 8.23913 2.08678 8.27608C1.81736 8.36691 1.64185 8.60862 1.63415 8.8919C1.63261 8.94732 1.63415 9.00274 1.63415 9.05817C1.63415 9.3045 1.63415 9.55237 1.63415 9.79869C1.63415 10.0635 1.61721 10.3406 1.84199 10.5346C1.99902 10.6701 2.17607 10.7009 2.37467 10.7009C2.50092 10.7009 2.62716 10.7024 2.7534 10.6963C3.54165 10.6562 4.28526 10.3699 4.9057 9.88491C5.49688 9.4215 5.9372 8.77027 6.15581 8.05284C6.27898 7.65256 6.31439 7.23842 6.31439 6.82274C6.31439 6.49635 6.31439 6.16843 6.31439 5.84204C6.31439 5.34169 6.31439 4.84134 6.31439 4.34098C6.31439 3.82061 6.31439 3.30024 6.31439 2.78142C6.31439 2.38575 6.31439 1.99162 6.31439 1.59596C6.31439 1.3327 6.33594 1.0525 6.23587 0.803091C6.05728 0.3597 5.67393 0.0610263 5.19667 0.00714201C5.10584 -0.00363485 5.01193 0.000983897 4.92109 0.000983897C4.51773 0.000983897 4.11437 0.000983897 3.71254 0.000983897C3.19371 0.000983897 2.67489 0.000983897 2.15452 0.000983897C1.84661 0.000983897 1.5387 0.000983897 1.23079 0.000983897C0.548765 0.00252345 0.0022238 0.558302 0.000684245 1.23878C-0.000855307 1.53438 0.000684245 1.82843 0.000684245 2.12403C0.000684245 2.64132 0.000684245 3.15861 0.000684245 3.67589C0.000684245 4.08849 0.000684245 4.50109 0.000684245 4.91216C0.000684245 4.97682 0.000684245 5.03994 0.000684245 5.1046C0.000684245 5.26625 0.142323 5.42021 0.308595 5.41251C0.477945 5.40481 0.619584 5.27703 0.619584 5.1046Z" fill="#182CD1"/>
</svg>
