<svg width="100" height="21" viewBox="0 0 100 21" fill="none" xmlns="http://www.w3.org/2000/svg">
<path d="M15.2305 17.2188C15.2233 17.1737 15.2419 17.1285 15.2788 17.1016C15.3156 17.0748 15.3644 17.0709 15.405 17.0916C16.0975 17.4439 16.825 17.7229 17.5754 17.9241C17.6166 17.9351 17.6605 17.9238 17.6913 17.8943C18.0174 17.5812 18.323 17.2473 18.6062 16.8949C18.6333 16.861 18.6404 16.8153 18.6249 16.7748C18.3437 16.0452 17.9866 15.3473 17.5595 14.6924C17.5346 14.6542 17.5332 14.6053 17.5559 14.5658C17.5787 14.5263 17.6216 14.5029 17.6672 14.5053C17.8635 14.5155 18.0592 14.5206 18.2542 14.5206C18.8526 14.5205 19.45 14.4721 20.0406 14.3757C20.0824 14.3689 20.1177 14.3408 20.1338 14.3016C20.2985 13.8982 20.4377 13.4847 20.5505 13.0638C20.5616 13.0219 20.5497 12.9773 20.5193 12.9465C19.9555 12.3783 19.3321 11.8725 18.6601 11.4377C18.6218 11.413 18.6007 11.3688 18.6054 11.3235C18.6101 11.2782 18.6399 11.2393 18.6825 11.223C19.4419 10.9314 20.1671 10.5575 20.8452 10.1082C20.8804 10.0848 20.901 10.0448 20.8997 10.0026C20.8858 9.58453 20.8469 9.1677 20.7834 8.7543C20.7767 8.71158 20.748 8.67556 20.7078 8.65966C19.9454 8.35906 19.1522 8.1434 18.3426 8.01661C18.2975 8.00954 18.2603 7.97779 18.2462 7.93444C18.232 7.8911 18.2435 7.8435 18.2757 7.81126C18.8653 7.22209 19.387 6.56872 19.8312 5.86337C19.8536 5.82753 19.856 5.78262 19.8373 5.74466C19.6483 5.36075 19.4358 4.98883 19.201 4.63102L19.1958 4.64101C18.3393 4.6695 17.489 4.79663 16.6617 5.01989L16.6277 5.02911C16.5838 5.04121 16.5368 5.02753 16.5063 4.99377C16.4757 4.96 16.4668 4.9119 16.4832 4.86943C16.4874 4.85844 16.4916 4.84744 16.4958 4.83652C16.7965 4.04587 17.0063 3.22358 17.1212 2.38551C17.1432 2.37644 17.1654 2.3679 17.1875 2.35899C16.8264 2.05428 16.4452 1.7743 16.0464 1.52097L16.0437 1.52258C16.0456 1.56945 16.0197 1.61303 15.9776 1.63375C15.2407 1.99987 14.5465 2.44641 13.9078 2.9652L13.8805 2.9875C13.8453 3.01639 13.7968 3.02299 13.7552 3.00455C13.7135 2.98612 13.6858 2.94579 13.6836 2.90032C13.6829 2.88855 13.6823 2.87687 13.6816 2.8651C13.6363 2.04614 13.5008 1.23466 13.2777 0.44538C13.2658 0.403543 13.2776 0.358554 13.3085 0.327904C13.3173 0.319062 13.3262 0.310221 13.3349 0.301226C12.8678 0.167664 12.3919 0.0670084 11.9107 0L11.9061 0.00838019C11.9385 0.0522463 11.9367 0.112614 11.9017 0.154457C11.3791 0.787167 10.9279 1.47558 10.5563 2.20722L10.5404 2.23859C10.52 2.27927 10.4784 2.30498 10.4329 2.30508C10.3874 2.30518 10.3457 2.27964 10.3251 2.23905L10.3091 2.20768C9.93375 1.47567 9.47858 0.787409 8.95191 0.155456C8.92426 0.122531 8.91637 0.0773236 8.93122 0.0369805C8.93499 0.0269089 8.93891 0.0169141 8.94237 0.00684254C8.4664 0.0756011 7.99578 0.177305 7.53389 0.31122L7.53319 0.317525C7.57688 0.345751 7.59703 0.399181 7.58286 0.449224C7.36155 1.24152 7.22858 2.05587 7.18638 2.8774L7.18453 2.91262C7.18243 2.9581 7.15488 2.99852 7.1133 3.01711C7.07173 3.03569 7.02324 3.02926 6.98794 3.00049L6.96057 2.97835C6.32183 2.46358 5.62825 2.02083 4.89243 1.65812C4.8538 1.63925 4.82826 1.60109 4.82555 1.55818C4.82508 1.55195 4.8247 1.54572 4.82432 1.5395C4.42471 1.79534 4.04293 2.07802 3.68161 2.38559C3.70275 2.39397 3.72397 2.40204 3.74504 2.41065C3.86309 3.24821 4.07601 4.06962 4.3797 4.85905L4.39239 4.89196C4.40902 4.93437 4.40031 4.98253 4.36988 5.01643C4.33945 5.05033 4.29249 5.06416 4.24854 5.05218L4.21448 5.04311C3.39929 4.82644 2.56214 4.70292 1.71911 4.67492C1.71181 4.66139 1.70489 4.6477 1.69758 4.63409C1.44583 5.01831 1.21969 5.41871 1.02063 5.83269C1.02901 5.83269 1.03739 5.83184 1.04577 5.83161C1.4942 6.54894 2.02273 7.21295 2.62117 7.81088L2.64616 7.83579C2.67856 7.8678 2.69015 7.91534 2.67611 7.95868C2.66208 8.00201 2.62482 8.03373 2.57981 8.04068L2.54498 8.04621C1.7375 8.17579 0.946719 8.39381 0.186918 8.69633C0.146716 8.71237 0.118057 8.74855 0.11165 8.79136C0.0494695 9.20664 0.0122173 9.62527 4.48315e-05 10.045C-0.00109791 10.0873 0.0196697 10.1272 0.0549876 10.1504C0.73346 10.5958 1.45853 10.9659 2.21731 11.2539C2.25991 11.2701 2.28981 11.3088 2.29468 11.3542C2.29955 11.3995 2.27856 11.4437 2.24037 11.4686C1.5715 11.9049 0.951426 12.4118 0.39081 12.9805C0.360402 13.0114 0.34869 13.0561 0.360057 13.0979C0.474458 13.52 0.615435 13.9343 0.782142 14.3386C0.798378 14.3778 0.833809 14.4057 0.875708 14.4124C1.45107 14.5038 2.03274 14.5498 2.61533 14.5499C2.82445 14.5499 3.03434 14.544 3.245 14.5323C3.29052 14.5297 3.33361 14.5529 3.3565 14.5924C3.37939 14.6318 3.37819 14.6807 3.3534 14.719C2.92952 15.3742 2.57561 16.0721 2.2975 16.8012C2.28206 16.8417 2.28932 16.8874 2.31656 16.9211C2.60159 17.2738 2.90914 17.6077 3.23731 17.9206C3.26819 17.95 3.31218 17.9611 3.35332 17.95C4.10168 17.7459 4.82673 17.4644 5.51672 17.11C5.55726 17.0892 5.60607 17.0929 5.64301 17.1196C5.67995 17.1463 5.69877 17.1915 5.6917 17.2365C5.57263 17.996 5.53238 18.7658 5.57161 19.5336C5.57381 19.5767 5.59871 19.6155 5.63704 19.6354C6.04754 19.8487 6.47183 20.0344 6.90706 20.1913C6.94743 20.2057 6.99242 20.198 7.02562 20.1708C7.61835 19.6847 8.15938 19.1388 8.64015 18.5417C8.66872 18.5062 8.71481 18.4897 8.75942 18.4991C8.80402 18.5085 8.83958 18.5421 8.85142 18.5861C9.04989 19.3231 9.32349 20.0378 9.66791 20.719C9.68729 20.7573 9.72547 20.7825 9.76832 20.7853C9.99384 20.7999 10.2212 20.8074 10.4503 20.8078C10.6912 20.8078 10.93 20.7997 11.1667 20.7834C11.2097 20.7805 11.2479 20.755 11.2671 20.7165C11.6091 20.0339 11.8801 19.318 12.0758 18.58C12.0875 18.5359 12.1229 18.5021 12.1675 18.4926C12.2121 18.483 12.2583 18.4993 12.287 18.5347C12.7704 19.1304 13.314 19.6747 13.9092 20.1589C13.9425 20.1859 13.9875 20.1935 14.0278 20.1789C14.4618 20.0208 14.8849 19.8339 15.2941 19.6196C15.3324 19.5995 15.3571 19.5606 15.3592 19.5175C15.3957 18.7488 15.3526 17.9785 15.2305 17.2188ZM19.0041 13.125C19.0879 13.1947 19.044 13.3317 18.9349 13.3393C18.7087 13.3546 18.4812 13.3625 18.2525 13.3628C18.0779 13.3628 17.9023 13.3583 17.7268 13.3492C17.2896 13.3264 16.8543 13.275 16.4238 13.1954C16.3985 13.1907 16.3753 13.178 16.3578 13.1591C16.0235 12.8018 15.6657 12.4673 15.2868 12.1578C15.2483 12.1266 15.2329 12.0748 15.2483 12.0276C15.2636 11.9805 15.3064 11.9476 15.356 11.945C15.8443 11.9159 16.3302 11.8543 16.8103 11.7605C16.8356 11.7555 16.8618 11.7588 16.8851 11.7698C17.6454 12.1311 18.3573 12.5864 19.0043 13.1249L19.0041 13.125ZM18.163 9.15986C18.5612 9.2222 18.9552 9.30844 19.343 9.41811C19.4481 9.44786 19.4632 9.59101 19.3667 9.64214C18.623 10.0357 17.833 10.3345 17.015 10.5317C16.99 10.5377 16.9636 10.5355 16.9399 10.5254C16.489 10.3346 16.0258 10.1743 15.5534 10.0455C15.5056 10.0327 15.4706 9.99168 15.4654 9.9424C15.4601 9.89312 15.4858 9.84572 15.5299 9.82312C15.9644 9.59822 16.3835 9.3445 16.7842 9.06368C16.8052 9.04889 16.8305 9.04121 16.8562 9.04177C17.2939 9.05265 17.7305 9.0921 18.163 9.15986ZM18.2455 6.09578C17.7272 6.75554 17.1279 7.34745 16.4618 7.85755C16.4413 7.87311 16.4164 7.88175 16.3907 7.88222C15.8957 7.89179 15.402 7.93484 14.9128 8.01108C14.8639 8.01889 14.8152 7.99577 14.7903 7.95291C14.7654 7.91004 14.7695 7.85628 14.8005 7.81764C15.1007 7.44094 15.3758 7.04488 15.624 6.63204C15.6372 6.61007 15.6569 6.59284 15.6805 6.58283C16.4656 6.25189 17.2898 6.02269 18.1331 5.90081C18.2407 5.8852 18.3129 6.00998 18.2455 6.09578ZM13.616 4.85159C13.619 4.82614 13.6301 4.80232 13.6477 4.78363C14.2226 4.17203 14.8718 3.6348 15.5802 3.18447C15.6724 3.12581 15.7896 3.21054 15.7628 3.31656C15.5572 4.13038 15.2504 4.91525 14.8498 5.65286C14.8375 5.67535 14.8184 5.69334 14.7952 5.70422C14.357 5.91089 13.9329 6.14636 13.5257 6.40908C13.4842 6.43605 13.4303 6.43469 13.3902 6.40566C13.35 6.37663 13.3318 6.32591 13.3444 6.27799C13.4663 5.80903 13.557 5.33253 13.616 4.85159ZM6.23457 3.87964C6.58567 4.16244 6.91737 4.4685 7.22743 4.79578C7.24499 4.81443 7.25616 4.83817 7.25934 4.86359C7.32005 5.34431 7.41251 5.82048 7.53612 6.28899C7.5489 6.33687 7.53093 6.38768 7.49088 6.41687C7.45083 6.44605 7.39695 6.4476 7.35529 6.42076C6.94967 6.16125 6.52742 5.92872 6.09126 5.72467C6.06808 5.71386 6.04893 5.69595 6.0366 5.67354C5.63216 4.93796 5.32201 4.15436 5.11347 3.34124C5.08625 3.23522 5.20319 3.15003 5.29568 3.20846C5.62124 3.41402 5.93472 3.63812 6.23457 3.87964ZM2.67437 6.12561C2.60649 6.03981 2.67868 5.91449 2.78693 5.93025C3.61493 6.05094 4.42465 6.27439 5.19735 6.59544C5.221 6.6053 5.24088 6.62246 5.25409 6.64442C5.50504 7.0589 5.78314 7.45633 6.08657 7.8341C6.11771 7.87264 6.12194 7.92637 6.09722 7.96931C6.07249 8.01225 6.02391 8.03557 5.97494 8.02799C5.4989 7.95581 5.01863 7.915 4.53724 7.90583C4.51167 7.9054 4.4869 7.89687 4.4665 7.88146C3.79777 7.37375 3.19565 6.78383 2.67437 6.12561ZM1.56473 9.45316C2.38384 9.21872 3.22956 9.08995 4.08132 9.06998C4.10691 9.06941 4.132 9.07701 4.15298 9.09166C4.54843 9.36635 4.96152 9.61476 5.38956 9.83527C5.43373 9.85777 5.45949 9.90513 5.45438 9.95443C5.44927 10.0037 5.41434 10.0448 5.36649 10.0578C4.88911 10.1888 4.42113 10.3519 3.96577 10.546C3.94212 10.5562 3.91586 10.5585 3.89081 10.5527C3.0741 10.3606 2.28481 10.0665 1.54159 9.67728C1.44548 9.62669 1.45978 9.4833 1.56473 9.45316ZM3.18065 13.3767C2.78112 13.399 2.38062 13.3975 1.98128 13.3721C1.87234 13.3651 1.82751 13.2282 1.91093 13.1581C2.55579 12.6168 3.26646 12.1591 4.02604 11.796C4.04929 11.7849 4.07549 11.7816 4.10077 11.7865C4.57812 11.8775 5.06098 11.9367 5.54617 11.9638C5.59563 11.9664 5.6384 11.9992 5.65383 12.0463C5.66925 12.0933 5.65415 12.145 5.61582 12.1764C5.23815 12.4872 4.8817 12.823 4.54885 13.1813C4.53137 13.2002 4.50831 13.213 4.48303 13.2179C4.05282 13.2991 3.61777 13.3522 3.18065 13.3767ZM4.98808 16.0804C4.62968 16.2645 4.26054 16.4269 3.88266 16.5667C3.78025 16.6045 3.68361 16.4975 3.73151 16.3997C4.10061 15.6433 4.56336 14.9364 5.10886 14.2955C5.12557 14.2759 5.14813 14.2621 5.17321 14.2563C5.64964 14.1449 6.11808 14.0017 6.57539 13.8277C6.62165 13.81 6.67405 13.8225 6.70728 13.8592C6.74052 13.896 6.74774 13.9494 6.72547 13.9936C6.50673 14.4313 6.31753 14.8831 6.15915 15.346C6.15084 15.3704 6.13494 15.3915 6.11379 15.4062C5.75364 15.6552 5.3776 15.8804 4.98808 16.0804ZM7.73855 17.816C7.48761 18.1277 7.2183 18.4242 6.93205 18.7039C6.85401 18.7802 6.72216 18.722 6.726 18.6129C6.75572 17.7717 6.89154 16.9377 7.13025 16.1306C7.13769 16.1061 7.15271 16.0846 7.17315 16.0691C7.56041 15.7751 7.92769 15.4557 8.27257 15.1129C8.30761 15.0779 8.36057 15.0681 8.40587 15.0881C8.45117 15.1081 8.47949 15.154 8.47716 15.2034C8.4552 15.6922 8.46598 16.1819 8.50945 16.6693C8.5118 16.6949 8.50588 16.7207 8.49253 16.7427C8.26482 17.1165 8.01295 17.475 7.73855 17.816ZM8.39259 4.35685C8.37573 4.33749 8.3655 4.31325 8.36337 4.28766C8.294 3.45106 8.32959 2.60906 8.46931 1.78129C8.48754 1.67366 8.62892 1.6429 8.68974 1.73408C8.90533 2.05637 9.10214 2.39082 9.27919 2.73579C9.48502 3.13689 9.66363 3.55137 9.81384 3.97644C9.82232 4.00062 9.82288 4.02688 9.81545 4.0514C9.67556 4.51523 9.56653 4.98781 9.48908 5.46604C9.48134 5.51501 9.44427 5.55417 9.39579 5.56458C9.34732 5.57499 9.29744 5.55449 9.27028 5.51301C9.00356 5.10867 8.71036 4.72244 8.39259 4.35685ZM10.957 18.2836C10.8537 18.6731 10.7272 19.0561 10.578 19.4304C10.5375 19.5318 10.3935 19.5322 10.3527 19.4308C10.0381 18.6502 9.82274 17.8332 9.71174 16.999C9.70839 16.9734 9.71332 16.9475 9.72581 16.9249C9.962 16.4964 10.1693 16.0526 10.3462 15.5965C10.3639 15.5502 10.4083 15.5197 10.4579 15.5196C10.5074 15.5194 10.5519 15.5498 10.5699 15.596C10.7485 16.0515 10.9575 16.4946 11.1953 16.9221C11.2079 16.9446 11.2129 16.9706 11.2096 16.9961C11.1536 17.4303 11.0692 17.8604 10.957 18.2836ZM11.3886 5.46304C11.3098 4.98796 11.1998 4.51858 11.0594 4.05794C11.0519 4.03349 11.0524 4.0073 11.0607 3.98313C11.3354 3.19265 11.7083 2.4398 12.1706 1.74223C12.231 1.65105 12.3726 1.68073 12.3912 1.78836C12.5332 2.6131 12.5711 3.45241 12.5039 4.28658C12.5018 4.31213 12.4917 4.33636 12.475 4.35578C12.1608 4.72074 11.871 5.10599 11.6074 5.50902C11.5804 5.55046 11.5307 5.57106 11.4823 5.56089C11.4339 5.55071 11.3967 5.51185 11.3886 5.46304ZM12.4112 16.6528C12.4521 16.1682 12.4607 15.6814 12.4371 15.1957C12.4345 15.1462 12.4627 15.1003 12.5079 15.08C12.5531 15.0598 12.6061 15.0695 12.6413 15.1043C12.9897 15.4479 13.3607 15.7677 13.7518 16.0617C13.7723 16.0771 13.7875 16.0986 13.795 16.1232C14.035 16.9269 14.1734 17.7576 14.2071 18.5957C14.2114 18.7048 14.08 18.7638 14.0015 18.688C13.3966 18.1027 12.8681 17.4434 12.4285 16.7256C12.4152 16.7038 12.4092 16.6783 12.4113 16.6528H12.4112ZM14.3341 13.813C14.792 13.9851 15.261 14.1264 15.7379 14.2359C15.763 14.2416 15.7856 14.2552 15.8024 14.2748C16.3502 14.9136 16.8156 15.6188 17.1876 16.3737C17.2359 16.4716 17.1397 16.5787 17.0372 16.5413C16.2467 16.2524 15.4957 15.8653 14.8017 15.3892C14.7804 15.3746 14.7645 15.3535 14.7561 15.3291C14.596 14.867 14.4052 14.4161 14.1849 13.9795C14.1625 13.9353 14.1696 13.882 14.2026 13.8451C14.2356 13.8083 14.2879 13.7956 14.3342 13.813H14.3341Z" fill="#182CD1"/>
<path d="M30.6923 17.8653V8.82836C30.6923 8.27295 30.8001 7.78778 31.0157 7.37285C31.2314 6.95792 31.5238 6.63448 31.893 6.40251C32.2621 6.17054 32.6787 6.05456 33.1426 6.05456C33.8287 6.05456 34.3825 6.27346 34.804 6.71125C35.2254 7.14905 35.4362 7.73714 35.4362 8.47551V17.8653H39.4842V8.67154C39.4842 7.88742 39.6965 7.25523 40.1213 6.77496C40.546 6.29469 41.1373 6.05456 41.8953 6.05456C42.5618 6.05456 43.1172 6.26366 43.5616 6.68185C44.0059 7.10004 44.2281 7.72733 44.2281 8.56372V17.8653H48.3937V7.7404C48.3937 6.10683 47.9542 4.84408 47.0754 3.95215C46.1965 3.06022 45.0546 2.61426 43.6498 2.61426C42.5455 2.61426 41.5898 2.874 40.7829 3.39347C39.9759 3.91295 39.4188 4.60395 39.1117 5.46647H38.9549C38.7131 4.59088 38.2296 3.89661 37.5043 3.38367C36.779 2.87073 35.9001 2.61426 34.8677 2.61426C33.8483 2.61426 32.9727 2.86909 32.2409 3.37877C31.5091 3.88844 30.9863 4.58434 30.6727 5.46647H30.4963V2.81029H26.5169V17.8653H30.6923ZM58.4891 18.1593C60.0116 18.1593 61.3266 17.8342 62.4342 17.1841C63.5417 16.5339 64.3961 15.6257 64.9972 14.4593C65.5984 13.2929 65.899 11.9387 65.899 10.3966C65.899 8.84143 65.5984 7.48067 64.9972 6.3143C64.3961 5.14793 63.5417 4.23966 62.4342 3.5895C61.3266 2.93934 60.0116 2.61426 58.4891 2.61426C56.9666 2.61426 55.6516 2.93934 54.544 3.5895C53.4364 4.23966 52.5821 5.14793 51.9809 6.3143C51.3798 7.48067 51.0792 8.84143 51.0792 10.3966C51.0792 11.9387 51.3798 13.2929 51.9809 14.4593C52.5821 15.6257 53.4364 16.5339 54.544 17.1841C55.6516 17.8342 56.9666 18.1593 58.4891 18.1593ZM58.5087 14.9248C57.8095 14.9248 57.2231 14.7272 56.7493 14.3319C56.2756 13.9365 55.9195 13.3958 55.681 12.7097C55.4425 12.0236 55.3232 11.2428 55.3232 10.3672C55.3232 9.49159 55.4425 8.71074 55.681 8.02464C55.9195 7.33854 56.2756 6.7962 56.7493 6.39761C57.2231 5.99902 57.8095 5.79972 58.5087 5.79972C59.2013 5.79972 59.7796 5.99902 60.2435 6.39761C60.7075 6.7962 61.0587 7.33854 61.2972 8.02464C61.5357 8.71074 61.6549 9.49159 61.6549 10.3672C61.6549 11.2428 61.5357 12.0236 61.2972 12.7097C61.0587 13.3958 60.7075 13.9365 60.2435 14.3319C59.7796 14.7272 59.2013 14.9248 58.5087 14.9248ZM72.7991 17.8653V9.16161C72.8057 8.51472 72.9282 7.96094 73.1667 7.50027C73.4052 7.0396 73.7384 6.68838 74.1664 6.44662C74.5944 6.20485 75.0894 6.08396 75.6514 6.08396C76.4878 6.08396 77.1444 6.3437 77.6214 6.86318C78.0984 7.38265 78.3337 8.10306 78.3271 9.02439V17.8653H82.5026V8.27948C82.5026 7.10984 82.2869 6.10193 81.8557 5.25574C81.4244 4.40955 80.82 3.75776 80.0424 3.30036C79.2648 2.84296 78.3533 2.61426 77.3078 2.61426C76.1904 2.61426 75.2397 2.87073 74.4556 3.38367C73.6715 3.89661 73.1128 4.59088 72.7795 5.46647H72.6031V2.81029H68.6237V17.8653H72.7991ZM92.5901 18.1593C94.1126 18.1593 95.4277 17.8342 96.5352 17.1841C97.6428 16.5339 98.4971 15.6257 99.0983 14.4593C99.6994 13.2929 100 11.9387 100 10.3966C100 8.84143 99.6994 7.48067 99.0983 6.3143C98.4971 5.14793 97.6428 4.23966 96.5352 3.5895C95.4277 2.93934 94.1126 2.61426 92.5901 2.61426C91.0677 2.61426 89.7526 2.93934 88.6451 3.5895C87.5375 4.23966 86.6831 5.14793 86.082 6.3143C85.4808 7.48067 85.1803 8.84143 85.1803 10.3966C85.1803 11.9387 85.4808 13.2929 86.082 14.4593C86.6831 15.6257 87.5375 16.5339 88.6451 17.1841C89.7526 17.8342 91.0677 18.1593 92.5901 18.1593ZM92.6097 14.9248C91.9106 14.9248 91.3241 14.7272 90.8504 14.3319C90.3767 13.9365 90.0205 13.3958 89.782 12.7097C89.5435 12.0236 89.4243 11.2428 89.4243 10.3672C89.4243 9.49159 89.5435 8.71074 89.782 8.02464C90.0205 7.33854 90.3767 6.7962 90.8504 6.39761C91.3241 5.99902 91.9106 5.79972 92.6097 5.79972C93.3024 5.79972 93.8807 5.99902 94.3446 6.39761C94.8085 6.7962 95.1598 7.33854 95.3983 8.02464C95.6368 8.71074 95.756 9.49159 95.756 10.3672C95.756 11.2428 95.6368 12.0236 95.3983 12.7097C95.1598 13.3958 94.8085 13.9365 94.3446 14.3319C93.8807 14.7272 93.3024 14.9248 92.6097 14.9248Z" fill="#182CD1"/>
</svg>
