<svg width="16" height="16" viewBox="0 0 16 16" fill="none" xmlns="http://www.w3.org/2000/svg">
<path d="M12.5827 10.4494C11.8914 9.18519 10.963 7.82223 9.83704 6.51852C8.6321 5.0963 7.30864 3.85186 6.02469 2.92346C5.39259 3.73334 4.78025 4.68149 4.22716 5.68889L4.97778 8.01976L3.41728 7.34815C2.94321 8.43457 2.60741 9.52099 2.39012 10.5482C3.59506 10.8247 4.97778 11.0025 6.47901 11.042L6.38025 9.48149L8.39506 11.0025C9.87654 10.9432 11.2988 10.7457 12.5827 10.4494Z" fill="#182CD1"/>
<path d="M9.06667 0.07901C8.6716 0.316047 8.27654 0.612343 7.88148 0.948146L7.76296 2.5679L6.99259 1.79753C6.75556 2.05432 6.49877 2.33086 6.26173 2.62716C7.56543 3.57531 8.88889 4.8395 10.1333 6.28148C11.3185 7.6642 12.2667 9.06666 12.9778 10.3704C13.2346 10.3111 13.4716 10.2321 13.7086 10.1728L13.3136 9.46173L14.7951 9.79753C15.2099 9.61975 15.5852 9.44197 15.9012 9.2642C15.9605 8.86913 16 8.45432 16 8.0395C16 3.95062 12.9778 0.59259 9.06667 0.07901Z" fill="#182CD1"/>
<path d="M14.8741 10.1531L14.4 11.4173L13.8864 10.4889C13.6494 10.5679 13.4123 10.6272 13.1556 10.7062C13.5901 11.5753 13.9259 12.4049 14.1037 13.1358C14.9136 12.1679 15.5062 11.0025 15.7827 9.71852C15.5062 9.85679 15.2296 9.99506 14.9136 10.1333C14.9136 10.1333 14.8938 10.1531 14.8741 10.1531Z" fill="#182CD1"/>
<path d="M8.47407 0.0197532C8.31605 0.0197532 8.15802 0 8 0C6.47901 0 5.03704 0.434568 3.8321 1.16543C4.14815 1.3037 4.48395 1.46173 4.83951 1.65926C5.21481 1.85679 5.59012 2.11358 5.96543 2.37037C6.22222 2.07407 6.47901 1.77778 6.7358 1.50123L6.16296 0.928395L7.38765 0.849383C7.74321 0.553086 8.11852 0.25679 8.47407 0.0197532Z" fill="#182CD1"/>
<path d="M8.09876 11.4173L6.61728 12.8988L6.51852 11.437C4.95802 11.3975 3.5358 11.2395 2.31111 10.9432C2.13333 11.8321 2.07407 12.6617 2.09383 13.4124C3.55555 15.0124 5.64938 16 7.98025 16C10.2716 16 12.3259 15.0321 13.7877 13.4914C13.6099 12.7012 13.2543 11.7728 12.7407 10.8049C11.358 11.1407 9.75802 11.358 8.09876 11.4173Z" fill="#182CD1"/>
<path d="M1.85679 6.65679L3.77284 5.74814C4.36543 4.62222 5.01728 3.59506 5.7284 2.68642C5.37284 2.42963 5.01728 2.21234 4.66173 2.01481C4.22716 1.77777 3.81235 1.58024 3.43704 1.44197C1.36296 2.88395 0 5.29382 0 8C0 8.63209 0.0790124 9.24444 0.217284 9.83703C0.730864 10.0741 1.34321 10.2914 2.01481 10.4494C2.25185 9.40247 2.60741 8.31605 3.08148 7.19012L1.85679 6.65679Z" fill="#182CD1"/>
<path d="M1.69877 12.9383C1.69877 12.2864 1.77778 11.5951 1.91605 10.8642C1.34321 10.7062 0.809876 10.5481 0.335802 10.3506C0.632098 11.279 1.10617 12.1679 1.69877 12.9383Z" fill="#182CD1"/>
</svg>
