<svg width="16" height="16" viewBox="0 0 16 16" fill="none" xmlns="http://www.w3.org/2000/svg">
<path d="M8 0C3.5817 0 0 3.58184 0 8C0 12.4182 3.5817 16 8 16C12.4183 16 16 12.4182 16 8C16 3.58184 12.4183 0 8 0ZM10.9785 8.44071L6.36207 11.106C6.29166 11.1468 6.21282 11.167 6.13425 11.167C6.05554 11.167 5.97697 11.1468 5.90628 11.106C5.76547 11.0247 5.67846 10.8742 5.67846 10.7112V5.38078C5.67846 5.21797 5.76533 5.06733 5.90628 4.98599C6.04752 4.90452 6.22112 4.90452 6.36221 4.98599L10.9786 7.65128C11.1197 7.73275 11.2066 7.88325 11.2063 8.04606C11.2064 8.20887 11.1195 8.35937 10.9785 8.44071Z" fill="#182CD1"/>
</svg>
