<svg width="80" height="80" viewBox="0 0 80 80" fill="none" xmlns="http://www.w3.org/2000/svg">
<mask id="mask0" mask-type="alpha" maskUnits="userSpaceOnUse" x="0" y="0" width="80" height="80">
<circle cx="40" cy="40" r="40" fill="#FFAF2C"/>
</mask>
<g mask="url(#mask0)">
<circle cx="40" cy="40" r="40" fill="#FFAF2C"/>
<path d="M40 13L63.3827 26.5V53.5L40 67L16.6173 53.5V26.5L40 13Z" fill="url(#paint0_linear)"/>
<path d="M63.3827 26.5L86.7654 40V67L63.3827 80.5L40 67V40L63.3827 26.5Z" fill="url(#paint1_linear)" fill-opacity="0.85"/>
<path d="M51.1173 19.5L74.5 33V60L51.1173 73.5L27.7346 60V33L51.1173 19.5Z" fill="url(#paint2_linear)" fill-opacity="0.85"/>
</g>
<defs>
<linearGradient id="paint0_linear" x1="40" y1="13" x2="40" y2="67" gradientUnits="userSpaceOnUse">
<stop stop-color="#FFE2B3"/>
<stop offset="1" stop-color="#FFE2B3" stop-opacity="0.5"/>
</linearGradient>
<linearGradient id="paint1_linear" x1="87" y1="67.5" x2="40" y2="40.5" gradientUnits="userSpaceOnUse">
<stop stop-color="white" stop-opacity="0"/>
<stop offset="1" stop-color="white" stop-opacity="0.5"/>
</linearGradient>
<linearGradient id="paint2_linear" x1="76" y1="61" x2="29" y2="34" gradientUnits="userSpaceOnUse">
<stop stop-color="white" stop-opacity="0"/>
<stop offset="1" stop-color="white" stop-opacity="0.5"/>
</linearGradient>
</defs>
</svg>
