<svg width="201" height="38" viewBox="0 0 201 38" fill="none" xmlns="http://www.w3.org/2000/svg">
<path d="M26.6323 16.074C31.4853 12.1068 41.3964 -2.18873 25.8804 0.342058C19.1135 1.36805 9.20233 7.93443 7.2201 15.5268C6.19481 13.4748 5.03281 11.5596 3.80246 9.64442C1.88859 7.04523 -0.230346 9.09723 1.82023 11.6964C7.89886 19.061 11.4035 28.2131 11.7997 37.7567C12.2782 33.1739 11.5263 27.5652 9.68079 22.0932C10.5694 22.3668 11.5947 22.5036 12.4833 22.5036C15.6275 27.702 20.4805 32.1479 25.8804 34.1999C30.8701 36.1835 37.5003 35.0207 34.7662 27.018C33.3308 22.6404 29.9815 18.81 26.6323 16.074ZM27.3158 2.18885C35.9282 1.23125 26.7006 11.97 23.6931 13.9536C20.8906 12.1068 17.3363 10.4652 13.9187 10.944C16.3794 7.72923 22.3944 2.80445 27.3158 2.18885ZM13.8503 13.2696C16.1743 13.0644 18.7034 14.364 20.6856 15.732C18.7717 16.6896 16.7211 17.2368 14.6022 17.442C11.458 17.442 10.7744 13.5432 13.8503 13.2696ZM25.7437 29.9591C21.7109 28.7964 17.8831 25.5132 15.149 22.23C17.4046 21.7512 19.6603 20.862 21.7109 19.6308C22.4627 19.2888 23.2146 18.7416 23.8982 18.2628C26.2905 20.4516 28.8195 23.3928 29.7765 26.7444C30.7334 30.3695 28.136 30.6431 25.7437 29.9591Z" fill="#F5A623"/>
<path d="M59.6467 7.04518H47.89C47.4799 7.04518 47.1381 7.38718 47.1381 7.79758H47.0698V26.2655C47.0698 26.6759 47.4115 27.0179 47.8216 27.0179C48.1634 27.0179 48.5052 26.6759 48.5735 26.2655V17.9207H58.553C58.9631 17.9207 59.1682 17.5787 59.1682 17.2367C59.1682 16.8263 58.8948 16.6211 58.553 16.6211H48.5052V8.48158H59.6467C60.0568 8.48158 60.2618 8.13958 60.2618 7.79758C60.2618 7.59238 60.0568 7.31878 59.6467 7.04518ZM65.0465 6.08759H64.9782C64.6364 6.08759 64.4314 6.36118 64.4314 6.70318V26.1971C64.4314 26.6075 64.7048 26.8811 65.0465 26.8811C65.4566 26.8811 65.6617 26.5391 65.6617 26.1971V6.83998C65.6617 6.36118 65.4566 6.08759 65.0465 6.08759ZM82.0664 13.0644C82.0664 12.654 81.7929 12.3804 81.4512 12.3804C81.0411 12.3804 80.836 12.7224 80.836 13.0644V21.2039C80.836 23.9399 78.7171 26.1287 76.1197 26.0603C73.3856 26.0603 71.8134 24.1451 71.8134 21.1355V13.0644C71.8134 12.654 71.54 12.3804 71.1983 12.3804C70.9249 12.3804 70.5831 12.7224 70.5831 13.0644V21.3407C70.5831 24.7607 72.6337 27.2915 75.983 27.2915C78.0336 27.3599 79.9474 26.1971 80.9044 24.2819V26.4023C80.9044 26.8127 81.2461 27.0179 81.5195 27.0179C81.9297 27.0179 82.1347 26.6759 82.1347 26.4023H82.0664V13.0644ZM93.3446 13.7484C93.618 13.7484 93.9597 13.4748 93.9597 13.1328C93.9597 12.8592 93.618 12.5172 93.3446 12.5172H89.0383V8.48158C89.0383 8.13958 88.6966 7.79758 88.4232 7.79758H88.3548C88.013 7.79758 87.808 8.13958 87.808 8.48158V12.5172H86.3042C85.9625 12.5172 85.6891 12.7224 85.6891 13.0644C85.6891 13.4064 85.9625 13.7484 86.3042 13.7484H87.808V23.1875C87.808 25.8551 89.5168 27.1547 91.499 27.1547C92.1826 27.1547 92.8661 27.0179 93.4813 26.8127C93.6863 26.6759 93.8914 26.4707 93.8914 26.1971C93.8914 25.8551 93.618 25.6499 93.3446 25.6499C92.8661 25.7867 92.3193 25.8551 91.7724 25.8551C90.132 25.8551 89.0383 25.1027 89.0383 23.0507V13.7484H93.3446ZM103.939 13.7484C104.281 13.7484 104.554 13.4748 104.554 13.1328C104.554 12.8592 104.281 12.5172 103.939 12.5172H99.633V8.48158C99.633 8.13958 99.3596 7.79758 99.0178 7.79758H98.9495C98.6077 7.79758 98.4027 8.13958 98.4027 8.48158V12.5172H96.8989C96.6255 12.5172 96.2837 12.7224 96.2837 13.0644C96.2837 13.4064 96.6255 13.7484 96.8989 13.7484H98.4027V23.1875C98.4027 25.8551 100.111 27.1547 102.162 27.1547C102.777 27.1547 103.461 27.0179 104.076 26.8127C104.349 26.6759 104.486 26.4707 104.486 26.1971C104.486 25.8551 104.281 25.6499 103.939 25.6499C103.461 25.7867 102.914 25.8551 102.367 25.8551C100.727 25.8551 99.633 25.1027 99.633 23.0507V13.7484H103.939ZM113.304 12.1068C109.681 12.1068 106.947 15.39 106.947 19.6991V19.7675C106.947 24.3503 109.954 27.3599 113.577 27.3599C115.491 27.4283 117.473 26.6075 118.772 25.0343C118.977 24.8975 119.045 24.6923 119.045 24.5555C119.045 24.2135 118.703 23.8715 118.43 23.8715L118.02 24.0083C117.478 24.641 116.807 25.1511 116.053 25.5048C115.299 25.8586 114.478 26.0479 113.645 26.0603C110.98 26.0603 108.587 23.9399 108.314 20.3831H118.977C119.25 20.3831 119.592 20.0411 119.592 19.6991C119.592 15.39 117.131 12.1068 113.304 12.1068ZM108.245 19.0151C108.451 15.8687 110.569 13.4064 113.235 13.4064C116.311 13.4064 117.952 16.0739 118.088 19.0151H108.245ZM130.05 12.312C127.589 12.5172 125.539 14.2272 124.65 16.6895V13.1328C124.65 12.8592 124.308 12.5172 124.035 12.5172C123.625 12.5172 123.42 12.7224 123.351 13.1328V26.5391C123.351 26.8811 123.625 27.2231 123.967 27.2231C124.308 27.2231 124.582 26.9495 124.65 26.5391V21.2039C124.65 16.4843 127.179 14.2272 130.05 13.8852H130.118C130.528 13.8852 130.734 13.4748 130.734 13.1328C130.734 12.654 130.46 12.312 130.05 12.312Z" fill="black"/>
<path d="M153.085 11.5595C152.196 11.5595 151.376 12.2435 151.171 13.2011L148.847 20.9987L146.591 13.2011C146.386 12.2435 145.498 11.4911 144.472 11.4911H144.267C143.242 11.4911 142.353 12.1067 142.148 13.2011L139.893 20.8619L137.705 13.1327C137.432 12.2435 136.68 11.4911 135.723 11.4911H135.655C134.63 11.4911 133.878 12.3803 133.878 13.4747L134.014 14.5007L137.5 25.2395C137.774 26.3339 138.662 27.0863 139.756 27.1547H139.893C140.918 27.1547 141.738 26.4023 142.08 25.3079L144.336 17.6471L146.591 25.3079C146.865 26.4023 147.753 27.1547 148.779 27.1547H148.984C150.077 27.1547 150.966 26.4023 151.239 25.2395L154.725 14.3639L154.93 13.5431V13.4747C154.93 12.3803 154.11 11.5595 153.085 11.5595ZM163.133 11.5595C161.561 11.4911 160.057 11.8331 158.553 12.3119C157.938 12.5855 157.596 13.2011 157.596 13.9535C157.596 14.9795 158.348 15.7319 159.305 15.6635C159.442 15.6635 159.647 15.6635 159.852 15.5267C160.74 15.2531 161.697 15.1163 162.654 15.1163C164.705 15.1163 165.73 16.0739 165.73 17.9207V18.1259C164.636 17.7155 163.406 17.5787 162.244 17.5787C158.895 17.5787 156.571 19.1519 156.571 22.5035C156.571 25.4447 158.826 27.1547 161.424 27.1547C163.064 27.2231 164.636 26.4707 165.73 25.2395C165.798 26.3339 166.619 27.0863 167.644 27.0863C168.738 27.0863 169.626 26.1287 169.626 24.9659V18.1259C169.694 16.4159 169.148 14.6375 168.054 13.3379C166.892 12.2435 165.32 11.5595 163.133 11.5595ZM165.798 21.4775C165.798 23.1191 164.431 24.1451 162.586 24.0767C161.287 24.0767 160.399 23.3927 160.399 22.2299V22.1615C160.399 20.8619 161.492 20.0411 163.201 20.0411C164.021 20.0411 164.978 20.3147 165.798 20.6567V21.4775ZM183.502 11.4911C182.682 11.4911 181.861 12.0383 181.656 12.9959L178.512 21.8195L175.504 13.0643C175.231 12.1067 174.479 11.4911 173.522 11.4911C172.497 11.4911 171.677 12.3119 171.54 13.4747C171.54 13.8167 171.677 14.1587 171.813 14.5007L176.188 25.2395C176.461 26.3339 177.35 27.0863 178.444 27.1547H178.717C179.674 27.0863 180.631 26.4023 181.041 25.3079L185.279 14.5691L185.484 13.5431V13.4747C185.484 12.3803 184.664 11.4911 183.502 11.4911ZM194.096 11.4227C189.927 11.4227 187.056 14.9795 187.056 19.2887V19.9727C187.193 24.1451 190.61 27.3599 194.507 27.1547C196.284 27.1547 197.993 26.5391 199.428 25.3079C199.838 24.9659 199.975 24.5555 199.975 24.0767V24.0083C199.975 23.0507 199.291 22.2983 198.403 22.2983C198.061 22.2983 197.719 22.3667 197.446 22.6403C196.649 23.3268 195.626 23.6925 194.575 23.6663C192.866 23.7347 191.362 22.5035 191.157 20.6567H199.155C200.18 20.5883 201 19.6307 200.932 18.5363V18.1943C200.932 14.5007 197.856 11.2859 194.096 11.4227ZM191.021 18.1259C191.362 16.1423 192.456 14.9111 194.096 14.9111C195.737 14.9111 196.831 16.2107 197.036 18.1259H191.021Z" fill="black"/>
</svg>
