<svg width="14" height="18" viewBox="0 0 14 18" fill="none" xmlns="http://www.w3.org/2000/svg">
<path d="M13.7537 1.52945C13.6009 1.42341 13.4006 1.39904 13.2254 1.46556L4.80017 4.67971C4.43331 4.82 3.9749 4.88783 3.50398 4.88783C2.84732 4.88915 2.1676 4.75479 1.6947 4.57169C1.52543 4.5078 1.38317 4.43667 1.28371 4.37212C1.3206 4.35632 1.36275 4.33919 1.41083 4.32273L9.0734 1.3997L10.2122 1.83045V0.571134C10.2122 0.384081 10.118 0.206249 9.96585 0.100868C9.81503 -0.0051729 9.61151 -0.0295424 9.43763 0.0369799L1.01367 3.25112C0.75417 3.34465 0.53221 3.45662 0.342523 3.62325C0.157446 3.78396 -0.00260247 4.04807 3.2072e-05 4.34183C3.2072e-05 4.34973 0.00266643 4.36224 0.00266643 4.36224V15.6835C0.00266643 15.6888 0.00069066 15.6934 0.00069066 15.6974C0.00069066 15.7033 0.00266643 15.7059 0.00266643 15.7112V15.7224H0.0039836C0.0224254 16.1202 0.248338 16.3698 0.46437 16.5496C1.1454 17.0798 2.28813 17.3756 3.50332 17.3874C4.07896 17.3874 4.66318 17.3117 5.20457 17.1049L13.6325 13.8901C13.8544 13.7952 14 13.5943 14 13.3553V1.99972C14 1.81332 13.9078 1.63549 13.7537 1.52945Z" fill="#182CD1"/>
</svg>
