<svg width="30" height="30" viewBox="0 0 30 30" fill="none" xmlns="http://www.w3.org/2000/svg">
<mask id="mask0" mask-type="alpha" maskUnits="userSpaceOnUse" x="0" y="0" width="30" height="30">
<circle cx="15" cy="15" r="15" fill="#182CD1"/>
</mask>
<g mask="url(#mask0)">
<circle cx="15" cy="15" r="15" fill="white"/>
<path d="M23.7952 15.503C24.0683 15.2299 24.0683 14.7844 23.7952 14.5114L23.091 13.7928C22.8898 13.5916 22.8323 13.2898 22.9329 13.0311L23.321 12.097C23.4647 11.7377 23.3066 11.321 22.9473 11.1772L22.0132 10.7892C21.7545 10.6886 21.582 10.4299 21.582 10.1425V9.13653C21.582 8.7485 21.2659 8.43234 20.8778 8.43234H19.8719C19.5844 8.43234 19.3257 8.25988 19.2252 8.0012L18.8371 7.06707C18.6934 6.70778 18.2766 6.53533 17.9174 6.69341L16.9832 7.08144C16.7246 7.18204 16.4228 7.12455 16.2216 6.92335L15.503 6.20479C15.2299 5.93174 14.7844 5.93174 14.5114 6.20479L13.7928 6.92335C13.5916 7.12455 13.2898 7.18204 13.0311 7.08144L12.097 6.69341C11.7377 6.5497 11.321 6.72216 11.1772 7.06707L10.7892 8.0012C10.6743 8.25988 10.4299 8.43234 10.1425 8.43234H9.13653C8.7485 8.43234 8.43234 8.7485 8.43234 9.13653V10.1425C8.43234 10.4299 8.25988 10.6886 8.0012 10.7892L7.06707 11.1772C6.70778 11.321 6.53533 11.7377 6.69341 12.097L7.08144 13.0311C7.18204 13.2898 7.12455 13.5916 6.92335 13.7928L6.20479 14.5114C5.93174 14.7844 5.93174 15.2299 6.20479 15.503L6.92335 16.2216C7.12455 16.4228 7.18204 16.7246 7.08144 16.9832L6.69341 17.9174C6.5497 18.2766 6.70778 18.6934 7.06707 18.8371L8.0012 19.2252C8.25988 19.3257 8.43234 19.5844 8.43234 19.8719V20.8778C8.43234 21.2659 8.7485 21.582 9.13653 21.582H10.1425C10.4299 21.582 10.6886 21.7545 10.7892 22.0132L11.1772 22.9473C11.321 23.3066 11.7377 23.479 12.097 23.321L13.0311 22.9329C13.2898 22.818 13.5916 22.8898 13.7928 23.091L14.5114 23.8096C14.7844 24.0826 15.2299 24.0826 15.503 23.8096L16.2216 23.091C16.4228 22.8898 16.7246 22.8323 16.9832 22.9329L17.9174 23.321C18.2766 23.4647 18.6934 23.2922 18.8371 22.9473L19.2252 22.0132C19.3401 21.7545 19.5844 21.582 19.8719 21.582H20.8778C21.2659 21.582 21.582 21.2659 21.582 20.8778V19.8719C21.582 19.5844 21.7545 19.3257 22.0132 19.2252L22.9473 18.8371C23.3066 18.6934 23.479 18.2766 23.321 17.9174L22.9329 16.9832C22.818 16.7246 22.8898 16.4228 23.091 16.2216L23.7952 15.503ZM11.3928 14.4683C11.091 14.1521 10.9329 13.721 10.9329 13.1749C10.9329 12.5856 11.1054 12.1114 11.4216 11.7665C11.7521 11.4216 12.1832 11.2491 12.7293 11.2491C13.2467 11.2491 13.6635 11.4072 13.9509 11.709C14.2383 12.0251 14.3964 12.4707 14.3964 13.0311C14.3964 13.6204 14.224 14.0946 13.9078 14.4251C13.5916 14.7701 13.1461 14.9425 12.6 14.9425C12.097 14.9425 11.6946 14.7844 11.3928 14.4683ZM13.2611 18.4491C13.1749 18.5784 13.0455 18.6503 12.9018 18.6503C12.5569 18.6503 12.3557 18.2766 12.5425 17.9892L16.7246 11.5509C16.8108 11.4359 16.9401 11.3497 17.0838 11.3497H17.0982C17.4431 11.3497 17.6443 11.7234 17.4575 12.0108L13.2611 18.4491ZM18.5784 18.2335C18.2479 18.5784 17.8168 18.7509 17.2707 18.7509C16.7677 18.7509 16.3653 18.5928 16.0635 18.2766C15.7617 17.9605 15.6036 17.5293 15.6036 16.9832C15.6036 16.394 15.776 15.9198 16.0922 15.5749C16.4228 15.2299 16.8539 15.0575 17.4 15.0575C17.9317 15.0575 18.3341 15.2156 18.6216 15.5174C18.909 15.8192 19.0527 16.2647 19.0527 16.8395C19.0671 17.4144 18.909 17.8886 18.5784 18.2335Z" fill="#182CD1"/>
<path d="M-3.6001 29.2462C-3.6001 29.2462 1.44409 26.7274 3.96752 27.9314C6.49095 29.1355 13.4264 30.8881 17.589 30.5597C21.7502 30.2314 28.4349 24.9734 29.6966 23.2207C30.9583 21.4681 28.0575 21.2492 25.1566 22.6735C22.2557 24.0977 12.9222 26.945 8.5089 22.6735C8.5089 22.6735 18.724 23.5491 19.1028 22.6735C19.4815 21.7978 17.9678 20.3735 10.0227 18.7303C2.07762 17.0871 -3.59876 18.7303 -3.59876 18.7303V29.2462H-3.6001Z" fill="url(#paint0_linear)"/>
</g>
<defs>
<linearGradient id="paint0_linear" x1="13.1999" y1="13.2" x2="13.1999" y2="30.6" gradientUnits="userSpaceOnUse">
<stop stop-color="#20D7FF"/>
<stop offset="1" stop-color="#20D7FF" stop-opacity="0"/>
</linearGradient>
</defs>
</svg>
