<svg width="20" height="20" viewBox="0 0 20 20" fill="none" xmlns="http://www.w3.org/2000/svg">
<path d="M6.49534 16.0716C6.49534 16.3344 6.28229 16.5475 6.01944 16.5475H3.99365C3.73081 16.5475 3.51775 16.3344 3.51775 16.0716V7.57954C3.51775 7.3167 3.73081 7.10364 3.99365 7.10364H6.01944C6.28229 7.10364 6.49534 7.3167 6.49534 7.57954V16.0716ZM5.00655 6.30314C3.94368 6.30314 3.08203 5.44149 3.08203 4.37862C3.08203 3.31575 3.94368 2.4541 5.00655 2.4541C6.06942 2.4541 6.93105 3.31575 6.93105 4.37862C6.93105 5.44149 6.06947 6.30314 5.00655 6.30314ZM17.082 16.1099C17.082 16.3516 16.8861 16.5475 16.6445 16.5475H14.4706C14.229 16.5475 14.0331 16.3516 14.0331 16.1099V12.1267C14.0331 11.5325 14.2074 9.5228 12.4802 9.5228C11.1405 9.5228 10.8687 10.8983 10.8142 11.5157V16.1099C10.8142 16.3516 10.6183 16.5475 10.3766 16.5475H8.27416C8.03251 16.5475 7.8366 16.3516 7.8366 16.1099V7.54121C7.8366 7.29957 8.03251 7.10364 8.27416 7.10364H10.3766C10.6182 7.10364 10.8142 7.29957 10.8142 7.54121V8.28208C11.3109 7.53657 12.0492 6.96114 13.6211 6.96114C17.102 6.96114 17.082 10.2131 17.082 11.9999V16.1099Z" fill="#55586F"/>
</svg>
