<svg width="17" height="16" viewBox="0 0 17 16" fill="none" xmlns="http://www.w3.org/2000/svg">
<path d="M12.3886 13.2402C12.3827 13.2056 12.3978 13.1708 12.4278 13.1502C12.4578 13.1295 12.4975 13.1265 12.5305 13.1425C13.0938 13.4134 13.6855 13.6279 14.2959 13.7826C14.3294 13.7911 14.3652 13.7824 14.3902 13.7597C14.6555 13.5189 14.904 13.2622 15.1344 12.9912C15.1564 12.9651 15.1622 12.93 15.1496 12.8988C14.9208 12.3379 14.6304 11.8012 14.283 11.2976C14.2627 11.2683 14.2616 11.2307 14.2801 11.2003C14.2986 11.1699 14.3335 11.1519 14.3705 11.1537C14.5302 11.1616 14.6894 11.1655 14.8481 11.1655C15.3348 11.1655 15.8207 11.1282 16.3011 11.0541C16.3351 11.0488 16.3638 11.0273 16.3769 10.9971C16.5109 10.6869 16.6241 10.369 16.7159 10.0453C16.7249 10.0131 16.7152 9.97879 16.6905 9.9551C16.2319 9.51822 15.7249 9.12927 15.1782 8.79496C15.1471 8.77593 15.1299 8.74199 15.1337 8.70713C15.1376 8.67227 15.1618 8.6424 15.1964 8.62984C15.8141 8.4056 16.404 8.11815 16.9556 7.77263C16.9843 7.75461 17.001 7.72389 17 7.6914C16.9886 7.36996 16.957 7.04944 16.9053 6.73156C16.8999 6.6987 16.8765 6.67101 16.8438 6.65878C16.2237 6.42764 15.5785 6.26181 14.9199 6.16432C14.8833 6.15888 14.853 6.13446 14.8415 6.10113C14.83 6.06781 14.8393 6.03121 14.8655 6.00641C15.3451 5.55337 15.7695 5.05097 16.1308 4.50859C16.149 4.48104 16.1509 4.44651 16.1358 4.41732C15.982 4.12211 15.8091 3.83613 15.6182 3.56099L15.614 3.56867C14.9173 3.59057 14.2257 3.68833 13.5527 3.86001L13.5251 3.8671C13.4893 3.8764 13.4511 3.86589 13.4263 3.83992C13.4014 3.81396 13.3942 3.77697 13.4075 3.74431C13.4109 3.73586 13.4144 3.72741 13.4177 3.71901C13.6623 3.11104 13.833 2.47875 13.9265 1.83432C13.9444 1.82735 13.9624 1.82078 13.9804 1.81393C13.6867 1.57962 13.3766 1.36434 13.0522 1.16954L13.05 1.17078C13.0516 1.20682 13.0305 1.24033 12.9962 1.25626C12.3968 1.53779 11.8322 1.88115 11.3127 2.28007L11.2904 2.29722C11.2618 2.31943 11.2224 2.32451 11.1885 2.31033C11.1546 2.29615 11.1321 2.26515 11.1303 2.23018C11.1298 2.22113 11.1293 2.21215 11.1287 2.2031C11.0918 1.57336 10.9817 0.949384 10.8001 0.342472C10.7905 0.310301 10.8001 0.275707 10.8252 0.252139C10.8324 0.245341 10.8396 0.238542 10.8467 0.231625C10.4667 0.128924 10.0796 0.0515256 9.68825 0L9.68449 0.00644389C9.71088 0.0401745 9.7094 0.0865937 9.68093 0.118769C9.25586 0.605286 8.88884 1.13464 8.58654 1.69723L8.57359 1.72135C8.55699 1.75262 8.52318 1.7724 8.48616 1.77248C8.44914 1.77255 8.41523 1.75291 8.39849 1.7217L8.38548 1.69758C8.08016 1.1347 7.70992 0.605472 7.28153 0.119537C7.25904 0.0942194 7.25262 0.0594574 7.2647 0.0284359C7.26777 0.0206914 7.27096 0.013006 7.27377 0.00526152C6.88661 0.0581329 6.5038 0.136337 6.1281 0.239311L6.12754 0.244158C6.16307 0.265863 6.17946 0.306947 6.16794 0.345428C5.98793 0.954657 5.87977 1.58084 5.84543 2.21256L5.84393 2.23964C5.84222 2.27461 5.81981 2.30569 5.786 2.31998C5.75218 2.33427 5.71274 2.32933 5.68403 2.30721L5.66176 2.29018C5.1422 1.89435 4.57805 1.5539 3.97953 1.275C3.9481 1.26049 3.92733 1.23115 3.92512 1.19815C3.92475 1.19336 3.92444 1.18857 3.92412 1.18378C3.59908 1.38052 3.28854 1.59788 2.99464 1.83438C3.01184 1.84082 3.0291 1.84703 3.04623 1.85365C3.14225 2.49769 3.31545 3.1293 3.56247 3.73633L3.57279 3.76164C3.58632 3.79425 3.57924 3.83128 3.55448 3.85735C3.52973 3.88342 3.49154 3.89405 3.45579 3.88484L3.42808 3.87786C2.765 3.71125 2.08406 3.61628 1.39833 3.59474C1.39239 3.58434 1.38676 3.57382 1.38082 3.56335C1.17605 3.85879 0.992101 4.16668 0.830187 4.48501C0.837003 4.48501 0.84382 4.48436 0.850636 4.48418C1.21539 5.03576 1.6453 5.54635 2.13207 6.00612L2.1524 6.02527C2.17875 6.04989 2.18818 6.08645 2.17676 6.11977C2.16535 6.15309 2.13504 6.17748 2.09843 6.18282L2.0701 6.18708C1.41329 6.28671 0.770066 6.45436 0.15204 6.68698C0.11934 6.69932 0.0960279 6.72714 0.0908166 6.76005C0.0402387 7.07938 0.00993762 7.40128 3.64661e-05 7.72404C-0.000893047 7.75654 0.0159995 7.7872 0.0447272 7.80509C0.5966 8.14759 1.18637 8.43211 1.80357 8.65361C1.83822 8.66606 1.86255 8.69585 1.86651 8.7307C1.87047 8.76554 1.85339 8.79954 1.82233 8.81867C1.27827 9.15418 0.773895 9.54395 0.317887 9.98129C0.293153 10.005 0.283627 10.0394 0.292872 10.0716C0.385927 10.3961 0.500598 10.7147 0.636198 11.0256C0.649404 11.0557 0.678224 11.0772 0.712305 11.0823C1.18031 11.1526 1.65344 11.188 2.12732 11.188C2.29742 11.188 2.46815 11.1835 2.6395 11.1745C2.67652 11.1725 2.71158 11.1904 2.7302 11.2207C2.74881 11.251 2.74784 11.2886 2.72767 11.3181C2.38289 11.8219 2.09502 12.3585 1.86879 12.9192C1.85624 12.9503 1.86214 12.9855 1.8843 13.0114C2.11614 13.2826 2.36631 13.5393 2.63324 13.7799C2.65836 13.8025 2.69414 13.8111 2.72761 13.8025C3.33632 13.6456 3.92608 13.4291 4.48733 13.1566C4.5203 13.1406 4.56 13.1435 4.59005 13.164C4.6201 13.1845 4.63541 13.2193 4.62966 13.2539C4.5328 13.8379 4.50007 14.4298 4.53198 15.0202C4.53377 15.0534 4.55402 15.0832 4.5852 15.0985C4.9191 15.2625 5.26422 15.4053 5.61824 15.5259C5.65108 15.537 5.68767 15.5311 5.71467 15.5102C6.1968 15.1364 6.63688 14.7166 7.02794 14.2575C7.05118 14.2302 7.08867 14.2175 7.12495 14.2247C7.16123 14.232 7.19015 14.2578 7.19979 14.2917C7.36123 14.8584 7.58377 15.408 7.86393 15.9317C7.87969 15.9612 7.91075 15.9806 7.9456 15.9827C8.12904 15.994 8.31396 15.9997 8.50036 16C8.69631 16 8.89055 15.9938 9.08308 15.9813C9.11801 15.979 9.14908 15.9594 9.16475 15.9298C9.44292 15.4049 9.66333 14.8544 9.82251 14.2869C9.83202 14.253 9.86085 14.2271 9.89711 14.2197C9.93337 14.2124 9.97093 14.2249 9.9943 14.2521C10.3875 14.7102 10.8297 15.1287 11.3138 15.501C11.3409 15.5218 11.3775 15.5276 11.4103 15.5164C11.7633 15.3948 12.1074 15.2512 12.4403 15.0863C12.4714 15.0709 12.4916 15.041 12.4933 15.0078C12.523 14.4168 12.4879 13.8244 12.3886 13.2402ZM15.4581 10.0924C15.5262 10.146 15.4905 10.2513 15.4018 10.2571C15.2177 10.269 15.0327 10.275 14.8466 10.2752C14.7047 10.2752 14.5618 10.2717 14.4191 10.2648C14.0634 10.2472 13.7094 10.2077 13.3592 10.1465C13.3386 10.1429 13.3198 10.1331 13.3055 10.1186C13.0336 9.84387 12.7426 9.58664 12.4344 9.34866C12.403 9.32464 12.3905 9.28485 12.403 9.24857C12.4155 9.21229 12.4503 9.18702 12.4906 9.18502C12.8879 9.16267 13.283 9.11527 13.6736 9.04314C13.6941 9.03931 13.7155 9.04182 13.7344 9.05029C14.3528 9.32814 14.9319 9.67821 15.4582 10.0923L15.4581 10.0924ZM14.7739 7.04341C15.0978 7.09134 15.4182 7.15766 15.7337 7.24199C15.8191 7.26486 15.8315 7.37494 15.753 7.41426C15.1481 7.71686 14.5054 7.94667 13.8401 8.09831C13.8197 8.10289 13.7983 8.10117 13.779 8.09341C13.4122 7.94675 13.0355 7.82349 12.6512 7.72445C12.6123 7.71455 12.5838 7.68303 12.5796 7.64514C12.5754 7.60725 12.5962 7.5708 12.6321 7.55342C12.9856 7.38048 13.3264 7.18539 13.6523 6.96945C13.6695 6.95808 13.69 6.95218 13.7109 6.9526C14.067 6.96097 14.422 6.9913 14.7739 7.04341ZM14.8409 4.68731C14.4194 5.19463 13.9319 5.64977 13.3901 6.042C13.3734 6.05397 13.3532 6.06062 13.3323 6.06098C12.9297 6.06833 12.528 6.10144 12.1302 6.16006C12.0904 6.16607 12.0507 6.14829 12.0305 6.11533C12.0103 6.08237 12.0136 6.04103 12.0388 6.01132C12.283 5.72166 12.5068 5.41711 12.7086 5.09966C12.7193 5.08276 12.7354 5.06952 12.7546 5.06182C13.3932 4.80734 14.0636 4.6311 14.7495 4.53738C14.8371 4.52538 14.8958 4.62133 14.8409 4.68731ZM11.0753 3.7306C11.0778 3.71102 11.0868 3.69271 11.1011 3.67834C11.5687 3.20805 12.0968 2.79495 12.673 2.44868C12.748 2.40357 12.8433 2.46872 12.8216 2.55024C12.6543 3.17602 12.4048 3.77954 12.0789 4.34673C12.0689 4.36402 12.0534 4.37785 12.0345 4.38622C11.678 4.54514 11.3331 4.7262 11.0019 4.92822C10.9681 4.94895 10.9243 4.94791 10.8916 4.92559C10.859 4.90327 10.8442 4.86426 10.8544 4.82742C10.9535 4.46681 11.0273 4.10041 11.0753 3.7306ZM5.07123 2.98323C5.35682 3.20068 5.62663 3.43602 5.87883 3.68768C5.89311 3.70202 5.9022 3.72028 5.90478 3.73982C5.95416 4.10947 6.02937 4.47562 6.12991 4.83587C6.14032 4.87269 6.12569 4.91176 6.09312 4.93421C6.06054 4.95665 6.01671 4.95784 5.98283 4.9372C5.6529 4.73765 5.30944 4.55885 4.95466 4.40194C4.93581 4.39363 4.92023 4.37986 4.9102 4.36263C4.58123 3.79701 4.32895 3.19446 4.15932 2.56922C4.13718 2.4877 4.2323 2.42219 4.30753 2.46712C4.57235 2.62519 4.82733 2.7975 5.07123 2.98323ZM2.17535 4.71025C2.12013 4.64427 2.17885 4.54791 2.2669 4.56003C2.9404 4.65282 3.59903 4.82465 4.22755 5.07152C4.24679 5.0791 4.26296 5.0923 4.2737 5.10918C4.47783 5.42789 4.70404 5.73349 4.95085 6.02397C4.97618 6.05361 4.97962 6.09492 4.95951 6.12794C4.9394 6.16096 4.89988 6.17889 4.86005 6.17307C4.47283 6.11756 4.08218 6.08618 3.69061 6.07913C3.66982 6.0788 3.64967 6.07224 3.63308 6.06039C3.08912 5.66999 2.59936 5.21638 2.17535 4.71025ZM1.27276 7.26894C1.93903 7.08867 2.62694 6.98965 3.31977 6.9743C3.34058 6.97386 3.36099 6.9797 3.37805 6.99097C3.69972 7.20219 4.03572 7.3932 4.38389 7.56276C4.41982 7.58006 4.44078 7.61648 4.43662 7.65439C4.43246 7.6923 4.40405 7.72389 4.36513 7.73385C3.97683 7.83458 3.59617 7.96002 3.22578 8.10931C3.20654 8.11708 3.18518 8.11886 3.1648 8.11439C2.50048 7.96673 1.85848 7.74058 1.25393 7.44127C1.17576 7.40237 1.1874 7.29212 1.27276 7.26894ZM2.58715 10.2859C2.26218 10.3031 1.93641 10.3019 1.61158 10.2824C1.52297 10.277 1.48651 10.1718 1.55436 10.1178C2.0789 9.70158 2.65695 9.34968 3.27481 9.07045C3.29371 9.06192 3.31502 9.05935 3.33559 9.06312C3.72387 9.13309 4.11663 9.17865 4.51128 9.19951C4.55151 9.20151 4.58631 9.22669 4.59885 9.26289C4.6114 9.29908 4.59911 9.33885 4.56794 9.36297C4.26074 9.60197 3.9708 9.86012 3.70005 10.1357C3.68584 10.1502 3.66708 10.1601 3.64652 10.1638C3.29659 10.2262 2.94271 10.267 2.58715 10.2859ZM4.05733 12.3649C3.7658 12.5065 3.46554 12.6314 3.15817 12.7389C3.07488 12.7679 2.99627 12.6857 3.03523 12.6104C3.33546 12.0288 3.71186 11.4852 4.15557 10.9924C4.16917 10.9773 4.18751 10.9668 4.20791 10.9623C4.59544 10.8766 4.97647 10.7665 5.34846 10.6327C5.38608 10.6191 5.42871 10.6287 5.45574 10.657C5.48277 10.6852 5.48865 10.7263 5.47053 10.7603C5.29261 11.0968 5.13871 11.4442 5.00988 11.8002C5.00312 11.8189 4.99019 11.8352 4.97299 11.8465C4.68004 12.038 4.37417 12.2112 4.05733 12.3649ZM6.29457 13.6995C6.09046 13.9392 5.8714 14.1672 5.63856 14.3822C5.57509 14.4409 5.46784 14.3961 5.47097 14.3122C5.49513 13.6655 5.60561 13.0241 5.79978 12.4035C5.80583 12.3847 5.81805 12.3681 5.83468 12.3562C6.14967 12.1302 6.44843 11.8845 6.72895 11.621C6.75745 11.5941 6.80053 11.5865 6.83738 11.6019C6.87422 11.6173 6.89726 11.6525 6.89536 11.6906C6.8775 12.0664 6.88627 12.443 6.92163 12.8177C6.92354 12.8374 6.91872 12.8572 6.90787 12.8742C6.72265 13.1616 6.51778 13.4373 6.29457 13.6995ZM6.82657 3.35017C6.81286 3.33528 6.80454 3.31664 6.80281 3.29697C6.74638 2.65366 6.77533 2.00622 6.88898 1.36971C6.9038 1.28695 7.01881 1.2633 7.06828 1.33341C7.24364 1.58123 7.40373 1.83841 7.54774 2.10366C7.71516 2.41209 7.86045 2.7308 7.98262 3.05765C7.98952 3.07625 7.98998 3.09644 7.98394 3.11529C7.87015 3.47195 7.78147 3.83534 7.71847 4.20307C7.71217 4.24073 7.68202 4.27084 7.64259 4.27884C7.60316 4.28685 7.56258 4.27109 7.54049 4.23919C7.32355 3.92827 7.08505 3.63128 6.82657 3.35017ZM8.91248 14.059C8.82849 14.3586 8.72554 14.653 8.60417 14.9409C8.57128 15.0189 8.45409 15.0191 8.42094 14.9412C8.16503 14.341 7.98987 13.7127 7.89957 13.0712C7.89686 13.0516 7.90087 13.0316 7.91102 13.0143C8.10314 12.6848 8.27172 12.3435 8.41563 11.9928C8.43008 11.9572 8.46619 11.9337 8.50649 11.9336C8.54679 11.9336 8.58299 11.9569 8.59761 11.9924C8.74292 12.3427 8.91287 12.6834 9.10634 13.0122C9.11653 13.0295 9.12061 13.0494 9.11797 13.069C9.07237 13.4029 9.00372 13.7336 8.91248 14.059ZM9.26356 4.20077C9.19946 3.83546 9.11 3.47453 8.99578 3.12032C8.98968 3.10152 8.99006 3.08138 8.99684 3.0628C9.22029 2.45497 9.52358 1.87606 9.89962 1.33968C9.94877 1.26956 10.064 1.29238 10.079 1.37515C10.1946 2.00932 10.2254 2.65471 10.1707 3.29614C10.169 3.31578 10.1608 3.33442 10.1472 3.34934C9.89166 3.62998 9.65593 3.92621 9.44154 4.23612C9.41956 4.26799 9.37914 4.28383 9.33975 4.276C9.30037 4.26818 9.27011 4.2383 9.26356 4.20077ZM10.0953 12.805C10.1286 12.4324 10.1356 12.0581 10.1164 11.6846C10.1143 11.6466 10.1372 11.6112 10.174 11.5957C10.2107 11.5801 10.2539 11.5876 10.2825 11.6144C10.5659 11.8785 10.8676 12.1245 11.1857 12.3505C11.2025 12.3623 11.2148 12.3789 11.2209 12.3978C11.4161 13.0158 11.5287 13.6546 11.5561 14.299C11.5597 14.3829 11.4527 14.4283 11.3889 14.37C10.8969 13.92 10.467 13.413 10.1094 12.8611C10.0986 12.8443 10.0937 12.8246 10.0954 12.805H10.0953ZM11.6594 10.6214C12.0319 10.7538 12.4134 10.8624 12.8013 10.9466C12.8217 10.951 12.8401 10.9615 12.8537 10.9765C13.2994 11.4677 13.6779 12.0099 13.9805 12.5904C14.0198 12.6657 13.9415 12.7481 13.8581 12.7193C13.2152 12.4971 12.6042 12.1995 12.0397 11.8334C12.0225 11.8222 12.0095 11.806 12.0027 11.7872C11.8725 11.4319 11.7173 11.0852 11.5381 10.7494C11.5199 10.7155 11.5256 10.6745 11.5525 10.6461C11.5793 10.6178 11.6219 10.608 11.6595 10.6214H11.6594Z" fill="#182CD1"/>
</svg>
