<svg width="30" height="30" viewBox="0 0 30 30" fill="none" xmlns="http://www.w3.org/2000/svg">
<mask id="mask0" mask-type="alpha" maskUnits="userSpaceOnUse" x="0" y="0" width="30" height="30">
<circle cx="15" cy="15" r="15" fill="#182CD1"/>
</mask>
<g mask="url(#mask0)">
<circle cx="15" cy="15" r="15" fill="white"/>
<path d="M15 6C10.0213 6 6 10.0213 6 15C6 19.9787 10.0213 24 15 24C19.9787 24 24 19.9787 24 15C24 10.0213 19.9787 6 15 6ZM18.3511 16.6915C18.2872 17.266 17.9681 17.6809 17.5532 18.0638C17.234 18.3511 16.8511 18.5745 16.4362 18.7021C16.3085 18.734 16.2447 18.7979 16.2766 18.9255C16.2766 19.3404 16.2766 19.7553 16.2766 20.1702C15.4468 20.1702 14.6489 20.1702 13.8511 20.1702C13.8511 19.7872 13.8511 19.4043 13.8511 19.0213C13.8511 18.8298 13.8191 18.766 13.6277 18.7021C13.0213 18.5106 12.5106 18.1915 12.1277 17.6809C11.8404 17.2979 11.6809 16.883 11.6489 16.4043C12.4468 16.4043 13.2766 16.4043 14.0745 16.4043C14.3298 17.0745 15.1277 17.2979 15.7021 16.883C16.0213 16.6277 16.0532 16.2128 15.734 15.9574C15.5426 15.7979 15.2872 15.734 15.0319 15.734C14.3617 15.734 13.7234 15.6064 13.117 15.2872C12.4787 14.9362 11.9362 14.4894 11.7447 13.7553C11.4574 12.8936 11.7766 12 12.6064 11.3936C12.9255 11.1702 13.3085 11.0106 13.6596 10.8511C13.7872 10.7872 13.8191 10.7553 13.8191 10.5957C13.8191 10.3085 13.8191 10.0213 13.8191 9.76596C14.617 9.76596 15.4468 9.76596 16.2447 9.76596C16.2447 10.0532 16.2447 10.3723 16.2447 10.6596C16.2447 10.7872 16.2766 10.8191 16.3723 10.8511C16.9149 11.0106 17.3617 11.2979 17.7447 11.7128C18.1277 12.1277 18.3511 12.5745 18.3511 13.1489C18.2872 13.1489 18.2234 13.1809 18.1915 13.1809C17.4894 13.1809 16.7872 13.1809 16.0851 13.1809C15.9894 13.1809 15.8936 13.1809 15.8936 13.0213C15.8936 12.9574 15.8617 12.8936 15.8298 12.8617C15.5106 12.3511 14.5532 12.3511 14.2021 12.8298C14.0426 13.0532 14.0426 13.3723 14.266 13.5638C14.4894 13.7872 14.7766 13.8511 15.0638 13.8511C15.9255 13.8511 16.7234 14.0745 17.4255 14.617C18.0957 15.1596 18.4787 15.8298 18.3511 16.6915Z" fill="#182CD1"/>
<path d="M8.25001 16.0048L0.600006 23.5467V32.4002H31.2V4.2002L15.2348 21.1397L8.25001 16.0048Z" fill="url(#paint0_linear)"/>
</g>
<defs>
<linearGradient id="paint0_linear" x1="15.9" y1="4.2002" x2="15.9" y2="32.4002" gradientUnits="userSpaceOnUse">
<stop offset="0.208333" stop-color="#20D7FF"/>
<stop offset="1" stop-color="#20D7FF" stop-opacity="0.1"/>
</linearGradient>
</defs>
</svg>
