<svg width="11" height="14" viewBox="0 0 11 14" fill="none" xmlns="http://www.w3.org/2000/svg">
<path d="M9.49397 5.16333H9.10966V3.21602C9.10966 1.44573 7.71474 0 6.00668 0H4.86797C3.15991 0 1.765 1.44573 1.765 3.21602V5.14858H1.38068C0.612055 5.14858 0 5.79768 0 6.57956V12.569C0 13.3656 0.626289 14 1.38068 14H9.50821C10.2768 14 10.8889 13.3509 10.8889 12.569V6.59431C10.8889 5.79768 10.2626 5.16333 9.49397 5.16333ZM3.62963 3.21602C3.62963 2.5079 4.18475 1.93256 4.86797 1.93256H6.00668C6.68991 1.93256 7.24503 2.5079 7.24503 3.21602V5.14858H3.62963V3.21602Z" fill="#182CD1"/>
</svg>
