<svg width="580" height="500" viewBox="0 0 580 500" fill="none" xmlns="http://www.w3.org/2000/svg">
<mask id="mask0" mask-type="alpha" maskUnits="userSpaceOnUse" x="70" y="30" width="440" height="440">
<circle r="220" transform="matrix(-1 0 0 1 290 250)" fill="#F2F6FC"/>
</mask>
<g mask="url(#mask0)">
<circle r="219" transform="matrix(-1 0 0 1 290 250)" stroke="black" stroke-width="2"/>
<path d="M68 269L86.143 250.952C96.7527 240.398 113.833 240.198 124.687 250.5L125.24 251.025C135.787 261.035 152.382 260.84 162.69 250.586V250.586C173.068 240.263 189.959 240.301 200.482 250.475V250.475C211.076 260.718 228.183 260.743 238.777 250.5V250.5C249.357 240.27 266.29 240.178 276.821 250.457V250.457C287.389 260.77 304.276 260.748 314.843 250.435V250.435C325.364 240.167 342.153 240.067 352.77 250.237L353.273 250.719C363.93 260.927 380.93 260.712 391.539 250.454V250.454C402.054 240.288 418.94 240.192 429.358 250.457V250.457C439.812 260.756 456.631 260.751 467.133 250.501V250.501C477.65 240.236 494.482 240.191 505 250.456L524 269" stroke="black" stroke-width="1.5" stroke-dasharray="5 5"/>
<path d="M68 346L86.143 327.952C96.7527 317.398 113.833 317.198 124.687 327.5L125.24 328.025C135.787 338.035 152.382 337.84 162.69 327.586V327.586C173.068 317.263 189.959 317.301 200.482 327.475V327.475C211.076 337.718 228.183 337.743 238.777 327.5V327.5C249.357 317.27 266.29 317.178 276.821 327.457V327.457C287.389 337.77 304.276 337.748 314.843 327.435V327.435C325.364 317.167 342.153 317.067 352.77 327.237L353.273 327.719C363.93 337.927 380.93 337.712 391.539 327.454V327.454C402.054 317.288 418.94 317.192 429.358 327.457V327.457C439.812 337.756 456.631 337.751 467.133 327.501V327.501C477.65 317.236 494.482 317.191 505 327.456L524 346" stroke="black" stroke-width="1.5" stroke-dasharray="5 5"/>
<path d="M68 423L86.143 404.952C96.7527 394.398 113.833 394.198 124.687 404.5L125.24 405.025C135.787 415.035 152.382 414.84 162.69 404.586V404.586C173.068 394.263 189.959 394.301 200.482 404.475V404.475C211.076 414.718 228.183 414.743 238.777 404.5V404.5C249.357 394.27 266.29 394.178 276.821 404.457V404.457C287.389 414.77 304.276 414.748 314.843 404.435V404.435C325.364 394.167 342.153 394.067 352.77 404.237L353.273 404.719C363.93 414.927 380.93 414.712 391.539 404.454V404.454C402.054 394.288 418.94 394.192 429.358 404.457V404.457C439.812 414.756 456.631 414.751 467.133 404.501V404.501C477.65 394.236 494.482 394.191 505 404.456L524 423" stroke="black" stroke-width="1.5" stroke-dasharray="5 5"/>
<path d="M151 150C151 139.507 159.507 131 170 131H410C420.493 131 429 139.507 429 150V419.051C428.916 419.124 428.817 419.211 428.701 419.311C428.281 419.675 427.649 420.212 426.814 420.897C425.144 422.266 422.658 424.226 419.406 426.581C412.901 431.29 403.335 437.575 391.105 443.861C366.644 456.433 331.551 469 289 469C246.454 469 211.866 456.187 187.909 443.368C175.932 436.96 166.617 430.552 160.3 425.751C157.143 423.35 154.735 421.352 153.12 419.956C152.312 419.258 151.702 418.711 151.296 418.34C151.181 418.235 151.082 418.144 151 418.067V150Z" fill="white" stroke="black" stroke-width="2"/>
<path d="M173.581 239V222.2H177.229L182.581 232.856L187.861 222.2H191.509V239H188.437V227.408L183.757 236.6H181.333L176.653 227.408V239H173.581ZM198.801 239.288C197.777 239.288 196.937 239.128 196.281 238.808C195.625 238.472 195.137 238.032 194.817 237.488C194.497 236.944 194.337 236.344 194.337 235.688C194.337 234.584 194.769 233.688 195.633 233C196.497 232.312 197.793 231.968 199.521 231.968H202.545V231.68C202.545 230.864 202.313 230.264 201.849 229.88C201.385 229.496 200.809 229.304 200.121 229.304C199.497 229.304 198.953 229.456 198.489 229.76C198.025 230.048 197.737 230.48 197.625 231.056H194.625C194.705 230.192 194.993 229.44 195.489 228.8C196.001 228.16 196.657 227.672 197.457 227.336C198.257 226.984 199.153 226.808 200.145 226.808C201.841 226.808 203.177 227.232 204.153 228.08C205.129 228.928 205.617 230.128 205.617 231.68V239H203.001L202.713 237.08C202.361 237.72 201.865 238.248 201.225 238.664C200.601 239.08 199.793 239.288 198.801 239.288ZM199.497 236.888C200.377 236.888 201.057 236.6 201.537 236.024C202.033 235.448 202.345 234.736 202.473 233.888H199.857C199.041 233.888 198.457 234.04 198.105 234.344C197.753 234.632 197.577 234.992 197.577 235.424C197.577 235.888 197.753 236.248 198.105 236.504C198.457 236.76 198.921 236.888 199.497 236.888ZM208.548 239V227.096H211.26L211.5 229.112C211.868 228.408 212.396 227.848 213.084 227.432C213.788 227.016 214.612 226.808 215.556 226.808C217.028 226.808 218.172 227.272 218.988 228.2C219.804 229.128 220.212 230.488 220.212 232.28V239H217.14V232.568C217.14 231.544 216.932 230.76 216.516 230.216C216.1 229.672 215.452 229.4 214.572 229.4C213.708 229.4 212.996 229.704 212.436 230.312C211.892 230.92 211.62 231.768 211.62 232.856V239H208.548ZM228.19 235.448C227.614 235.448 227.078 235.384 226.582 235.256L225.694 236.144C225.966 236.288 226.334 236.408 226.798 236.504C227.262 236.6 228.014 236.696 229.054 236.792C230.638 236.936 231.79 237.312 232.51 237.92C233.23 238.528 233.59 239.368 233.59 240.44C233.59 241.144 233.398 241.808 233.014 242.432C232.63 243.072 232.038 243.584 231.238 243.968C230.438 244.368 229.414 244.568 228.166 244.568C226.47 244.568 225.102 244.248 224.062 243.608C223.022 242.984 222.502 242.04 222.502 240.776C222.502 239.704 223.022 238.776 224.062 237.992C223.742 237.848 223.462 237.696 223.222 237.536C222.998 237.376 222.798 237.208 222.622 237.032V236.48L224.71 234.272C223.782 233.456 223.318 232.408 223.318 231.128C223.318 230.328 223.51 229.6 223.894 228.944C224.294 228.288 224.854 227.768 225.574 227.384C226.294 227 227.166 226.808 228.19 226.808C228.862 226.808 229.486 226.904 230.062 227.096H234.574V228.968L232.534 229.112C232.854 229.72 233.014 230.392 233.014 231.128C233.014 231.928 232.822 232.656 232.438 233.312C232.054 233.968 231.494 234.488 230.758 234.872C230.038 235.256 229.182 235.448 228.19 235.448ZM228.19 233.096C228.814 233.096 229.326 232.928 229.726 232.592C230.142 232.256 230.35 231.776 230.35 231.152C230.35 230.528 230.142 230.048 229.726 229.712C229.326 229.376 228.814 229.208 228.19 229.208C227.534 229.208 227.006 229.376 226.606 229.712C226.206 230.048 226.006 230.528 226.006 231.152C226.006 231.776 226.206 232.256 226.606 232.592C227.006 232.928 227.534 233.096 228.19 233.096ZM225.31 240.464C225.31 241.056 225.582 241.496 226.126 241.784C226.686 242.088 227.366 242.24 228.166 242.24C228.934 242.24 229.558 242.08 230.038 241.76C230.518 241.456 230.758 241.04 230.758 240.512C230.758 240.08 230.598 239.72 230.278 239.432C229.974 239.144 229.358 238.968 228.43 238.904C227.774 238.856 227.166 238.784 226.606 238.688C226.142 238.944 225.806 239.224 225.598 239.528C225.406 239.832 225.31 240.144 225.31 240.464ZM242.057 239.288C240.905 239.288 239.865 239.024 238.937 238.496C238.025 237.968 237.297 237.24 236.753 236.312C236.225 235.368 235.961 234.28 235.961 233.048C235.961 231.816 236.233 230.736 236.777 229.808C237.321 228.864 238.049 228.128 238.961 227.6C239.889 227.072 240.929 226.808 242.081 226.808C243.217 226.808 244.241 227.072 245.153 227.6C246.081 228.128 246.809 228.864 247.337 229.808C247.881 230.736 248.153 231.816 248.153 233.048C248.153 234.28 247.881 235.368 247.337 236.312C246.809 237.24 246.081 237.968 245.153 238.496C244.225 239.024 243.193 239.288 242.057 239.288ZM242.057 236.624C242.857 236.624 243.553 236.328 244.145 235.736C244.737 235.128 245.033 234.232 245.033 233.048C245.033 231.864 244.737 230.976 244.145 230.384C243.553 229.776 242.865 229.472 242.081 229.472C241.265 229.472 240.561 229.776 239.969 230.384C239.393 230.976 239.105 231.864 239.105 233.048C239.105 234.232 239.393 235.128 239.969 235.736C240.561 236.328 241.257 236.624 242.057 236.624Z" fill="#00CB50"/>
<path d="M258.107 224.84C257.627 224.84 257.227 224.696 256.907 224.408C256.603 224.104 256.451 223.728 256.451 223.28C256.451 222.832 256.603 222.464 256.907 222.176C257.227 221.872 257.627 221.72 258.107 221.72C258.587 221.72 258.979 221.872 259.283 222.176C259.603 222.464 259.763 222.832 259.763 223.28C259.763 223.728 259.603 224.104 259.283 224.408C258.979 224.696 258.587 224.84 258.107 224.84ZM256.835 239V227.096H259.379V239H256.835ZM267.489 239.288C265.985 239.288 264.745 238.92 263.769 238.184C262.793 237.448 262.233 236.472 262.089 235.256H264.657C264.785 235.8 265.089 236.272 265.569 236.672C266.049 237.056 266.681 237.248 267.465 237.248C268.233 237.248 268.793 237.088 269.145 236.768C269.497 236.448 269.673 236.08 269.673 235.664C269.673 235.056 269.425 234.648 268.929 234.44C268.449 234.216 267.777 234.016 266.913 233.84C266.241 233.696 265.569 233.504 264.897 233.264C264.241 233.024 263.689 232.688 263.241 232.256C262.809 231.808 262.593 231.208 262.593 230.456C262.593 229.416 262.993 228.552 263.793 227.864C264.593 227.16 265.713 226.808 267.153 226.808C268.481 226.808 269.553 227.128 270.369 227.768C271.201 228.408 271.689 229.312 271.833 230.48H269.385C269.305 229.968 269.065 229.568 268.665 229.28C268.281 228.992 267.761 228.848 267.105 228.848C266.465 228.848 265.969 228.984 265.617 229.256C265.265 229.512 265.089 229.848 265.089 230.264C265.089 230.68 265.329 231.008 265.809 231.248C266.305 231.488 266.953 231.704 267.753 231.896C268.553 232.072 269.289 232.28 269.961 232.52C270.649 232.744 271.201 233.08 271.617 233.528C272.033 233.976 272.241 234.632 272.241 235.496C272.257 236.584 271.833 237.488 270.969 238.208C270.121 238.928 268.961 239.288 267.489 239.288ZM281.065 239V227.096H283.345L283.561 229.352C283.977 228.568 284.553 227.952 285.289 227.504C286.041 227.04 286.945 226.808 288.001 226.808V229.472H287.305C286.601 229.472 285.969 229.592 285.409 229.832C284.865 230.056 284.425 230.448 284.089 231.008C283.769 231.552 283.609 232.312 283.609 233.288V239H281.065ZM295.422 239.288C294.254 239.288 293.214 239.032 292.302 238.52C291.406 237.992 290.702 237.264 290.19 236.336C289.678 235.408 289.422 234.328 289.422 233.096C289.422 231.848 289.67 230.752 290.166 229.808C290.678 228.864 291.382 228.128 292.278 227.6C293.19 227.072 294.246 226.808 295.446 226.808C296.614 226.808 297.63 227.072 298.494 227.6C299.358 228.112 300.03 228.8 300.51 229.664C300.99 230.528 301.23 231.48 301.23 232.52C301.23 232.68 301.222 232.856 301.206 233.048C301.206 233.224 301.198 233.424 301.182 233.648H291.918C291.998 234.8 292.374 235.68 293.046 236.288C293.734 236.88 294.526 237.176 295.422 237.176C296.142 237.176 296.742 237.016 297.222 236.696C297.718 236.36 298.086 235.912 298.326 235.352H300.87C300.55 236.472 299.91 237.408 298.95 238.16C298.006 238.912 296.83 239.288 295.422 239.288ZM295.422 228.896C294.574 228.896 293.822 229.152 293.166 229.664C292.51 230.16 292.11 230.912 291.966 231.92H298.686C298.638 230.992 298.31 230.256 297.702 229.712C297.094 229.168 296.334 228.896 295.422 228.896ZM313.47 244.28V237.152C313.086 237.712 312.558 238.208 311.886 238.64C311.214 239.072 310.35 239.288 309.294 239.288C308.142 239.288 307.126 239.016 306.246 238.472C305.366 237.928 304.678 237.184 304.182 236.24C303.686 235.296 303.438 234.224 303.438 233.024C303.438 231.824 303.686 230.76 304.182 229.832C304.678 228.888 305.366 228.152 306.246 227.624C307.142 227.08 308.166 226.808 309.318 226.808C310.262 226.808 311.086 226.992 311.79 227.36C312.51 227.728 313.07 228.248 313.47 228.92L313.734 227.096H316.014V244.28H313.47ZM309.75 237.08C310.838 237.08 311.726 236.704 312.414 235.952C313.118 235.2 313.47 234.232 313.47 233.048C313.47 231.848 313.118 230.88 312.414 230.144C311.726 229.392 310.838 229.016 309.75 229.016C308.662 229.016 307.766 229.392 307.062 230.144C306.358 230.88 306.006 231.848 306.006 233.048C306.006 233.832 306.166 234.528 306.486 235.136C306.806 235.744 307.246 236.224 307.806 236.576C308.382 236.912 309.03 237.08 309.75 237.08ZM323.613 239.288C322.173 239.288 321.037 238.84 320.205 237.944C319.389 237.048 318.981 235.712 318.981 233.936V227.096H321.525V233.672C321.525 235.976 322.469 237.128 324.357 237.128C325.301 237.128 326.077 236.792 326.685 236.12C327.293 235.448 327.597 234.488 327.597 233.24V227.096H330.141V239H327.885L327.693 236.912C327.325 237.648 326.781 238.232 326.061 238.664C325.357 239.08 324.541 239.288 323.613 239.288ZM338.946 239.288C337.778 239.288 336.738 239.032 335.826 238.52C334.93 237.992 334.226 237.264 333.714 236.336C333.202 235.408 332.946 234.328 332.946 233.096C332.946 231.848 333.194 230.752 333.69 229.808C334.202 228.864 334.906 228.128 335.802 227.6C336.714 227.072 337.77 226.808 338.97 226.808C340.138 226.808 341.154 227.072 342.018 227.6C342.882 228.112 343.554 228.8 344.034 229.664C344.514 230.528 344.754 231.48 344.754 232.52C344.754 232.68 344.746 232.856 344.73 233.048C344.73 233.224 344.722 233.424 344.706 233.648H335.442C335.522 234.8 335.898 235.68 336.57 236.288C337.258 236.88 338.05 237.176 338.946 237.176C339.666 237.176 340.266 237.016 340.746 236.696C341.242 236.36 341.61 235.912 341.85 235.352H344.394C344.074 236.472 343.434 237.408 342.474 238.16C341.53 238.912 340.354 239.288 338.946 239.288ZM338.946 228.896C338.098 228.896 337.346 229.152 336.69 229.664C336.034 230.16 335.634 230.912 335.49 231.92H342.21C342.162 230.992 341.834 230.256 341.226 229.712C340.618 229.168 339.858 228.896 338.946 228.896ZM352.145 239.288C350.641 239.288 349.401 238.92 348.425 238.184C347.449 237.448 346.889 236.472 346.745 235.256H349.313C349.441 235.8 349.745 236.272 350.225 236.672C350.705 237.056 351.337 237.248 352.121 237.248C352.889 237.248 353.449 237.088 353.801 236.768C354.153 236.448 354.329 236.08 354.329 235.664C354.329 235.056 354.081 234.648 353.585 234.44C353.105 234.216 352.433 234.016 351.569 233.84C350.897 233.696 350.225 233.504 349.553 233.264C348.897 233.024 348.345 232.688 347.897 232.256C347.465 231.808 347.249 231.208 347.249 230.456C347.249 229.416 347.649 228.552 348.449 227.864C349.249 227.16 350.369 226.808 351.809 226.808C353.137 226.808 354.209 227.128 355.025 227.768C355.857 228.408 356.345 229.312 356.489 230.48H354.041C353.961 229.968 353.721 229.568 353.321 229.28C352.937 228.992 352.417 228.848 351.761 228.848C351.121 228.848 350.625 228.984 350.273 229.256C349.921 229.512 349.745 229.848 349.745 230.264C349.745 230.68 349.985 231.008 350.465 231.248C350.961 231.488 351.609 231.704 352.409 231.896C353.209 232.072 353.945 232.28 354.617 232.52C355.305 232.744 355.857 233.08 356.273 233.528C356.689 233.976 356.897 234.632 356.897 235.496C356.913 236.584 356.489 237.488 355.625 238.208C354.777 238.928 353.617 239.288 352.145 239.288ZM364.221 239C363.053 239 362.125 238.72 361.437 238.16C360.749 237.584 360.405 236.568 360.405 235.112V229.232H358.365V227.096H360.405L360.717 224.072H362.949V227.096H366.309V229.232H362.949V235.112C362.949 235.768 363.085 236.224 363.357 236.48C363.645 236.72 364.133 236.84 364.821 236.84H366.189V239H364.221ZM370.372 224.84C369.892 224.84 369.492 224.696 369.172 224.408C368.868 224.104 368.716 223.728 368.716 223.28C368.716 222.832 368.868 222.464 369.172 222.176C369.492 221.872 369.892 221.72 370.372 221.72C370.852 221.72 371.244 221.872 371.548 222.176C371.868 222.464 372.028 222.832 372.028 223.28C372.028 223.728 371.868 224.104 371.548 224.408C371.244 224.696 370.852 224.84 370.372 224.84ZM369.1 239V227.096H371.644V239H369.1ZM375.003 239V227.096H377.259L377.451 229.184C377.819 228.448 378.355 227.872 379.059 227.456C379.779 227.024 380.603 226.808 381.531 226.808C382.971 226.808 384.099 227.256 384.915 228.152C385.747 229.048 386.163 230.384 386.163 232.16V239H383.643V232.424C383.643 230.12 382.699 228.968 380.811 228.968C379.867 228.968 379.083 229.304 378.459 229.976C377.851 230.648 377.547 231.608 377.547 232.856V239H375.003ZM394.031 235.352C393.407 235.352 392.831 235.28 392.303 235.136L391.271 236.144C391.447 236.256 391.663 236.352 391.919 236.432C392.175 236.512 392.535 236.584 392.999 236.648C393.463 236.712 394.095 236.776 394.895 236.84C396.479 236.984 397.623 237.368 398.327 237.992C399.031 238.6 399.383 239.416 399.383 240.44C399.383 241.144 399.191 241.808 398.807 242.432C398.439 243.072 397.855 243.584 397.055 243.968C396.271 244.368 395.263 244.568 394.031 244.568C392.367 244.568 391.015 244.248 389.975 243.608C388.951 242.984 388.439 242.032 388.439 240.752C388.439 240.256 388.567 239.76 388.823 239.264C389.095 238.784 389.519 238.328 390.095 237.896C389.759 237.752 389.463 237.6 389.207 237.44C388.967 237.264 388.751 237.088 388.559 236.912V236.336L390.623 234.224C389.695 233.424 389.231 232.376 389.231 231.08C389.231 230.296 389.415 229.584 389.783 228.944C390.167 228.288 390.719 227.768 391.439 227.384C392.159 227 393.023 226.808 394.031 226.808C394.703 226.808 395.327 226.904 395.903 227.096H400.343V228.776L398.231 228.896C398.615 229.552 398.807 230.28 398.807 231.08C398.807 231.88 398.615 232.6 398.231 233.24C397.863 233.88 397.319 234.392 396.599 234.776C395.895 235.16 395.039 235.352 394.031 235.352ZM394.031 233.36C394.767 233.36 395.359 233.168 395.807 232.784C396.271 232.384 396.503 231.824 396.503 231.104C396.503 230.368 396.271 229.808 395.807 229.424C395.359 229.04 394.767 228.848 394.031 228.848C393.279 228.848 392.671 229.04 392.207 229.424C391.759 229.808 391.535 230.368 391.535 231.104C391.535 231.824 391.759 232.384 392.207 232.784C392.671 233.168 393.279 233.36 394.031 233.36ZM390.839 240.512C390.839 241.2 391.143 241.712 391.751 242.048C392.359 242.4 393.119 242.576 394.031 242.576C394.911 242.576 395.623 242.384 396.167 242C396.711 241.632 396.983 241.136 396.983 240.512C396.983 240.048 396.799 239.648 396.431 239.312C396.063 238.992 395.367 238.792 394.343 238.712C393.575 238.664 392.895 238.592 392.303 238.496C391.743 238.8 391.359 239.128 391.151 239.48C390.943 239.832 390.839 240.176 390.839 240.512ZM174.363 274.28L177.219 268.016H176.523L171.819 257.096H174.579L178.227 265.904L182.043 257.096H184.731L177.051 274.28H174.363ZM191.313 269.288C190.177 269.288 189.153 269.032 188.241 268.52C187.345 267.992 186.633 267.264 186.105 266.336C185.577 265.392 185.313 264.296 185.313 263.048C185.313 261.8 185.577 260.712 186.105 259.784C186.649 258.84 187.377 258.112 188.289 257.6C189.201 257.072 190.217 256.808 191.337 256.808C192.473 256.808 193.489 257.072 194.385 257.6C195.297 258.112 196.017 258.84 196.545 259.784C197.089 260.712 197.361 261.8 197.361 263.048C197.361 264.296 197.089 265.392 196.545 266.336C196.017 267.264 195.297 267.992 194.385 268.52C193.473 269.032 192.449 269.288 191.313 269.288ZM191.313 267.104C191.921 267.104 192.481 266.952 192.993 266.648C193.521 266.344 193.945 265.896 194.265 265.304C194.585 264.696 194.745 263.944 194.745 263.048C194.745 262.152 194.585 261.408 194.265 260.816C193.961 260.208 193.545 259.752 193.017 259.448C192.505 259.144 191.945 258.992 191.337 258.992C190.729 258.992 190.161 259.144 189.633 259.448C189.121 259.752 188.705 260.208 188.385 260.816C188.065 261.408 187.905 262.152 187.905 263.048C187.905 263.944 188.065 264.696 188.385 265.304C188.705 265.896 189.121 266.344 189.633 266.648C190.145 266.952 190.705 267.104 191.313 267.104ZM204.504 269.288C203.064 269.288 201.928 268.84 201.096 267.944C200.28 267.048 199.872 265.712 199.872 263.936V257.096H202.416V263.672C202.416 265.976 203.36 267.128 205.248 267.128C206.192 267.128 206.968 266.792 207.576 266.12C208.184 265.448 208.488 264.488 208.488 263.24V257.096H211.032V269H208.776L208.584 266.912C208.216 267.648 207.672 268.232 206.952 268.664C206.248 269.08 205.432 269.288 204.504 269.288ZM214.268 269V257.096H216.548L216.764 259.352C217.18 258.568 217.756 257.952 218.492 257.504C219.244 257.04 220.148 256.808 221.204 256.808V259.472H220.508C219.804 259.472 219.172 259.592 218.612 259.832C218.068 260.056 217.628 260.448 217.292 261.008C216.972 261.552 216.812 262.312 216.812 263.288V269H214.268ZM236.128 269.288C235.2 269.288 234.376 269.104 233.656 268.736C232.952 268.368 232.392 267.848 231.976 267.176L231.712 269H229.432V251.72H231.976V258.944C232.36 258.384 232.888 257.888 233.56 257.456C234.232 257.024 235.096 256.808 236.152 256.808C237.304 256.808 238.32 257.08 239.2 257.624C240.08 258.168 240.768 258.912 241.264 259.856C241.776 260.8 242.032 261.872 242.032 263.072C242.032 264.272 241.776 265.344 241.264 266.288C240.768 267.216 240.08 267.952 239.2 268.496C238.32 269.024 237.296 269.288 236.128 269.288ZM235.696 267.08C236.784 267.08 237.68 266.712 238.384 265.976C239.088 265.224 239.44 264.248 239.44 263.048C239.44 262.264 239.28 261.568 238.96 260.96C238.64 260.352 238.2 259.88 237.64 259.544C237.08 259.192 236.432 259.016 235.696 259.016C234.608 259.016 233.712 259.392 233.008 260.144C232.32 260.896 231.976 261.864 231.976 263.048C231.976 264.248 232.32 265.224 233.008 265.976C233.712 266.712 234.608 267.08 235.696 267.08ZM248.816 269.288C247.808 269.288 246.976 269.12 246.32 268.784C245.664 268.448 245.176 268.008 244.856 267.464C244.536 266.904 244.376 266.296 244.376 265.64C244.376 264.488 244.824 263.576 245.72 262.904C246.616 262.232 247.896 261.896 249.56 261.896H252.68V261.68C252.68 260.752 252.424 260.056 251.912 259.592C251.416 259.128 250.768 258.896 249.968 258.896C249.264 258.896 248.648 259.072 248.12 259.424C247.608 259.76 247.296 260.264 247.184 260.936H244.64C244.72 260.072 245.008 259.336 245.504 258.728C246.016 258.104 246.656 257.632 247.424 257.312C248.208 256.976 249.064 256.808 249.992 256.808C251.656 256.808 252.944 257.248 253.856 258.128C254.768 258.992 255.224 260.176 255.224 261.68V269H253.016L252.8 266.96C252.464 267.616 251.976 268.168 251.336 268.616C250.696 269.064 249.856 269.288 248.816 269.288ZM249.32 267.224C250.008 267.224 250.584 267.064 251.048 266.744C251.528 266.408 251.896 265.968 252.152 265.424C252.424 264.88 252.592 264.28 252.656 263.624H249.824C248.816 263.624 248.096 263.8 247.664 264.152C247.248 264.504 247.04 264.944 247.04 265.472C247.04 266.016 247.24 266.448 247.64 266.768C248.056 267.072 248.616 267.224 249.32 267.224ZM258.19 269V257.096H260.446L260.638 259.184C261.006 258.448 261.542 257.872 262.246 257.456C262.966 257.024 263.79 256.808 264.718 256.808C266.158 256.808 267.286 257.256 268.102 258.152C268.934 259.048 269.35 260.384 269.35 262.16V269H266.83V262.424C266.83 260.12 265.886 258.968 263.998 258.968C263.054 258.968 262.27 259.304 261.646 259.976C261.038 260.648 260.734 261.608 260.734 262.856V269H258.19ZM272.346 269V251.72H274.89V262.016L279.45 257.096H282.498L277.434 262.496L283.242 269H280.026L274.89 262.904V269H272.346ZM296.012 269.288C294.508 269.288 293.268 268.92 292.292 268.184C291.316 267.448 290.756 266.472 290.612 265.256H293.18C293.308 265.8 293.612 266.272 294.092 266.672C294.572 267.056 295.204 267.248 295.988 267.248C296.756 267.248 297.316 267.088 297.668 266.768C298.02 266.448 298.196 266.08 298.196 265.664C298.196 265.056 297.948 264.648 297.452 264.44C296.972 264.216 296.3 264.016 295.436 263.84C294.764 263.696 294.092 263.504 293.42 263.264C292.764 263.024 292.212 262.688 291.764 262.256C291.332 261.808 291.116 261.208 291.116 260.456C291.116 259.416 291.516 258.552 292.316 257.864C293.116 257.16 294.236 256.808 295.676 256.808C297.004 256.808 298.076 257.128 298.892 257.768C299.724 258.408 300.212 259.312 300.356 260.48H297.908C297.828 259.968 297.588 259.568 297.188 259.28C296.804 258.992 296.284 258.848 295.628 258.848C294.988 258.848 294.492 258.984 294.14 259.256C293.788 259.512 293.612 259.848 293.612 260.264C293.612 260.68 293.852 261.008 294.332 261.248C294.828 261.488 295.476 261.704 296.276 261.896C297.076 262.072 297.812 262.28 298.484 262.52C299.172 262.744 299.724 263.08 300.14 263.528C300.556 263.976 300.764 264.632 300.764 265.496C300.78 266.584 300.356 267.488 299.492 268.208C298.644 268.928 297.484 269.288 296.012 269.288ZM308.088 269C306.92 269 305.992 268.72 305.304 268.16C304.616 267.584 304.272 266.568 304.272 265.112V259.232H302.232V257.096H304.272L304.584 254.072H306.816V257.096H310.176V259.232H306.816V265.112C306.816 265.768 306.952 266.224 307.224 266.48C307.512 266.72 308 266.84 308.688 266.84H310.056V269H308.088ZM316.831 269.288C315.823 269.288 314.991 269.12 314.335 268.784C313.679 268.448 313.191 268.008 312.871 267.464C312.551 266.904 312.391 266.296 312.391 265.64C312.391 264.488 312.839 263.576 313.735 262.904C314.631 262.232 315.911 261.896 317.575 261.896H320.695V261.68C320.695 260.752 320.439 260.056 319.927 259.592C319.431 259.128 318.783 258.896 317.983 258.896C317.279 258.896 316.663 259.072 316.135 259.424C315.623 259.76 315.311 260.264 315.199 260.936H312.655C312.735 260.072 313.023 259.336 313.519 258.728C314.031 258.104 314.671 257.632 315.439 257.312C316.223 256.976 317.079 256.808 318.007 256.808C319.671 256.808 320.959 257.248 321.871 258.128C322.783 258.992 323.239 260.176 323.239 261.68V269H321.031L320.815 266.96C320.479 267.616 319.991 268.168 319.351 268.616C318.711 269.064 317.871 269.288 316.831 269.288ZM317.335 267.224C318.023 267.224 318.599 267.064 319.063 266.744C319.543 266.408 319.911 265.968 320.167 265.424C320.439 264.88 320.607 264.28 320.671 263.624H317.839C316.831 263.624 316.111 263.8 315.679 264.152C315.263 264.504 315.055 264.944 315.055 265.472C315.055 266.016 315.255 266.448 315.655 266.768C316.071 267.072 316.631 267.224 317.335 267.224ZM330.963 269C329.795 269 328.867 268.72 328.179 268.16C327.491 267.584 327.147 266.568 327.147 265.112V259.232H325.107V257.096H327.147L327.459 254.072H329.691V257.096H333.051V259.232H329.691V265.112C329.691 265.768 329.827 266.224 330.099 266.48C330.387 266.72 330.875 266.84 331.563 266.84H332.931V269H330.963ZM340.938 269.288C339.77 269.288 338.73 269.032 337.818 268.52C336.922 267.992 336.218 267.264 335.706 266.336C335.194 265.408 334.938 264.328 334.938 263.096C334.938 261.848 335.186 260.752 335.682 259.808C336.194 258.864 336.898 258.128 337.794 257.6C338.706 257.072 339.762 256.808 340.962 256.808C342.13 256.808 343.146 257.072 344.01 257.6C344.874 258.112 345.546 258.8 346.026 259.664C346.506 260.528 346.746 261.48 346.746 262.52C346.746 262.68 346.738 262.856 346.722 263.048C346.722 263.224 346.714 263.424 346.698 263.648H337.434C337.514 264.8 337.89 265.68 338.562 266.288C339.25 266.88 340.042 267.176 340.938 267.176C341.658 267.176 342.258 267.016 342.738 266.696C343.234 266.36 343.602 265.912 343.842 265.352H346.386C346.066 266.472 345.426 267.408 344.466 268.16C343.522 268.912 342.346 269.288 340.938 269.288ZM340.938 258.896C340.09 258.896 339.338 259.152 338.682 259.664C338.026 260.16 337.626 260.912 337.482 261.92H344.202C344.154 260.992 343.826 260.256 343.218 259.712C342.61 259.168 341.85 258.896 340.938 258.896ZM349.385 269V257.096H351.641L351.857 258.776C352.241 258.168 352.745 257.688 353.369 257.336C354.009 256.984 354.745 256.808 355.577 256.808C357.465 256.808 358.777 257.552 359.513 259.04C359.945 258.352 360.521 257.808 361.241 257.408C361.977 257.008 362.769 256.808 363.617 256.808C365.105 256.808 366.273 257.256 367.121 258.152C367.969 259.048 368.393 260.384 368.393 262.16V269H365.849V262.424C365.849 260.12 364.969 258.968 363.209 258.968C362.313 258.968 361.577 259.304 361.001 259.976C360.441 260.648 360.161 261.608 360.161 262.856V269H357.617V262.424C357.617 260.12 356.729 258.968 354.953 258.968C354.073 258.968 353.345 259.304 352.769 259.976C352.209 260.648 351.929 261.608 351.929 262.856V269H349.385ZM376.938 269.288C375.77 269.288 374.73 269.032 373.818 268.52C372.922 267.992 372.218 267.264 371.706 266.336C371.194 265.408 370.938 264.328 370.938 263.096C370.938 261.848 371.186 260.752 371.682 259.808C372.194 258.864 372.898 258.128 373.794 257.6C374.706 257.072 375.762 256.808 376.962 256.808C378.13 256.808 379.146 257.072 380.01 257.6C380.874 258.112 381.546 258.8 382.026 259.664C382.506 260.528 382.746 261.48 382.746 262.52C382.746 262.68 382.738 262.856 382.722 263.048C382.722 263.224 382.714 263.424 382.698 263.648H373.434C373.514 264.8 373.89 265.68 374.562 266.288C375.25 266.88 376.042 267.176 376.938 267.176C377.658 267.176 378.258 267.016 378.738 266.696C379.234 266.36 379.602 265.912 379.842 265.352H382.386C382.066 266.472 381.426 267.408 380.466 268.16C379.522 268.912 378.346 269.288 376.938 269.288ZM376.938 258.896C376.09 258.896 375.338 259.152 374.682 259.664C374.026 260.16 373.626 260.912 373.482 261.92H380.202C380.154 260.992 379.826 260.256 379.218 259.712C378.61 259.168 377.85 258.896 376.938 258.896ZM385.385 269V257.096H387.641L387.833 259.184C388.201 258.448 388.737 257.872 389.441 257.456C390.161 257.024 390.985 256.808 391.913 256.808C393.353 256.808 394.481 257.256 395.297 258.152C396.129 259.048 396.545 260.384 396.545 262.16V269H394.025V262.424C394.025 260.12 393.081 258.968 391.193 258.968C390.249 258.968 389.465 259.304 388.841 259.976C388.233 260.648 387.929 261.608 387.929 262.856V269H385.385ZM404.534 269C403.366 269 402.438 268.72 401.75 268.16C401.062 267.584 400.718 266.568 400.718 265.112V259.232H398.678V257.096H400.718L401.03 254.072H403.262V257.096H406.622V259.232H403.262V265.112C403.262 265.768 403.398 266.224 403.67 266.48C403.958 266.72 404.446 266.84 405.134 266.84H406.502V269H404.534Z" fill="#050929"/>
<rect opacity="0.5" x="184.5" y="291" width="210" height="30" rx="5" fill="#D1D6DE"/>
<rect opacity="0.5" x="184.5" y="336" width="210" height="30" rx="5" fill="#D1D6DE"/>
<rect x="184.5" y="386" width="210" height="40" rx="8" fill="#00CB50"/>
</g>
<circle cx="290" cy="126" r="49" fill="white" stroke="black" stroke-width="2"/>
<path d="M270 126.945V143.847L279.583 137.239L270 126.945Z" fill="#00CB50"/>
<path d="M309.461 143.85V126.948L301.25 136.389L309.461 143.85Z" fill="#00CB50"/>
<path d="M309.461 106.085L289.773 125.977L270 106V123.189L289.773 143.167L309.458 123.277L309.461 106.085Z" fill="#00CB50"/>
<path fill-rule="evenodd" clip-rule="evenodd" d="M529.852 443.602H509.611V357.819H529.852V443.602Z" fill="#20D7FF"/>
<path fill-rule="evenodd" clip-rule="evenodd" d="M460.455 340.511C460.455 332.076 466.879 325.148 475.086 324.375C476.617 300.011 496.796 280.724 521.47 280.724C547.141 280.724 567.951 301.6 567.951 327.352C567.951 329.279 567.832 331.178 567.606 333.044C574.584 339.063 579.009 347.978 579.009 357.934C579.009 376.062 564.36 390.757 546.29 390.757C546.04 390.757 545.793 390.743 545.544 390.738V390.757H485.112V390.749C472.61 390.584 462.525 380.371 462.525 367.791C462.525 362.504 464.31 357.638 467.303 353.757C463.162 350.821 460.455 345.985 460.455 340.511Z" fill="white"/>
<path fill-rule="evenodd" clip-rule="evenodd" d="M544.868 389.74H485.412L485.102 389.732C473.015 389.573 463.182 379.611 463.182 367.525C463.182 362.565 464.786 357.871 467.819 353.95L468.26 353.38L467.672 352.964C463.564 350.062 461.111 345.334 461.111 340.318C461.111 332.285 467.136 325.661 475.126 324.911L475.713 324.856L475.75 324.268C477.266 300.218 497.349 281.38 521.471 281.38C546.735 281.38 567.288 301.931 567.288 327.193C567.288 329.049 567.173 330.93 566.948 332.786L566.903 333.152L567.182 333.393C574.281 339.497 578.352 348.354 578.352 357.694C578.352 375.364 563.976 389.74 546.304 389.74C546.156 389.74 546.008 389.734 545.861 389.729L544.868 389.705V389.74ZM485.093 391.119H546.248H546.304C564.736 391.119 579.732 376.124 579.732 357.694C579.732 348.075 575.592 338.946 568.36 332.589C568.564 330.796 568.668 328.983 568.668 327.193C568.668 301.171 547.495 280 521.471 280C496.817 280 476.258 299.106 474.413 323.603C466.003 324.68 459.732 331.765 459.732 340.318C459.732 345.545 462.176 350.484 466.305 353.669C463.357 357.717 461.803 362.493 461.803 367.525C461.803 380.133 471.88 390.566 484.403 391.092V391.111L485.093 391.119Z" fill="black"/>
<path fill-rule="evenodd" clip-rule="evenodd" d="M526.238 446.497C526.637 446.497 526.961 445.907 526.961 445.181V391.349C526.961 390.623 526.637 390.033 526.238 390.033C525.839 390.033 525.515 390.623 525.515 391.349V445.181C525.515 445.907 525.839 446.497 526.238 446.497Z" fill="black"/>
<path fill-rule="evenodd" clip-rule="evenodd" d="M519.732 446.497C520.131 446.497 520.454 445.907 520.454 445.181V391.349C520.454 390.623 520.131 390.033 519.732 390.033C519.333 390.033 519.009 390.623 519.009 391.349V445.181C519.009 445.907 519.333 446.497 519.732 446.497Z" fill="black"/>
<path fill-rule="evenodd" clip-rule="evenodd" d="M513.948 446.497C514.347 446.497 514.671 445.907 514.671 445.181V391.349C514.671 390.623 514.347 390.033 513.948 390.033C513.549 390.033 513.226 390.623 513.226 391.349V445.181C513.226 445.907 513.549 446.497 513.948 446.497Z" fill="black"/>
<path fill-rule="evenodd" clip-rule="evenodd" d="M563.473 361.801C564.671 361.797 565.639 360.822 565.635 359.623C565.631 358.423 564.657 357.454 563.46 357.458C562.262 357.462 561.294 358.437 561.298 359.636C561.302 360.836 562.276 361.805 563.473 361.801Z" fill="black"/>
<path fill-rule="evenodd" clip-rule="evenodd" d="M551.907 382.795C553.105 382.791 554.073 381.816 554.069 380.616C554.065 379.417 553.091 378.448 551.894 378.451C550.696 378.456 549.728 379.431 549.732 380.63C549.736 381.829 550.71 382.799 551.907 382.795Z" fill="black"/>
<path fill-rule="evenodd" clip-rule="evenodd" d="M501.666 322.348C502.864 322.345 503.832 321.369 503.828 320.17C503.824 318.97 502.85 318.001 501.652 318.005C500.455 318.009 499.486 318.984 499.491 320.184C499.494 321.383 500.468 322.353 501.666 322.348Z" fill="black"/>
<path fill-rule="evenodd" clip-rule="evenodd" d="M519.738 340.445C520.936 340.442 521.904 339.466 521.9 338.267C521.896 337.067 520.922 336.098 519.725 336.102C518.527 336.106 517.559 337.081 517.563 338.28C517.567 339.48 518.541 340.449 519.738 340.445Z" fill="black"/>
<path fill-rule="evenodd" clip-rule="evenodd" d="M490.1 343.704C491.298 343.701 492.266 342.725 492.262 341.526C492.258 340.326 491.284 339.357 490.086 339.361C488.888 339.365 487.92 340.34 487.924 341.54C487.928 342.739 488.902 343.708 490.1 343.704Z" fill="black"/>
<path fill-rule="evenodd" clip-rule="evenodd" d="M534.919 358.904C536.117 358.9 537.085 357.925 537.081 356.726C537.077 355.526 536.103 354.557 534.906 354.561C533.708 354.565 532.74 355.54 532.744 356.739C532.748 357.939 533.722 358.908 534.919 358.904Z" fill="black"/>
<path fill-rule="evenodd" clip-rule="evenodd" d="M505.642 361.801C506.84 361.797 507.808 360.822 507.804 359.623C507.8 358.423 506.826 357.454 505.628 357.458C504.43 357.462 503.462 358.437 503.466 359.636C503.47 360.836 504.444 361.805 505.642 361.801Z" fill="black"/>
<path fill-rule="evenodd" clip-rule="evenodd" d="M523.714 379.899C524.912 379.895 525.88 378.92 525.876 377.72C525.872 376.521 524.899 375.551 523.7 375.555C522.503 375.559 521.535 376.534 521.539 377.734C521.542 378.933 522.516 379.903 523.714 379.899Z" fill="black"/>
<path fill-rule="evenodd" clip-rule="evenodd" d="M494.076 382.795C495.273 382.791 496.241 381.816 496.238 380.616C496.234 379.417 495.26 378.448 494.062 378.451C492.864 378.456 491.896 379.431 491.9 380.63C491.904 381.829 492.878 382.799 494.076 382.795Z" fill="black"/>
<path fill-rule="evenodd" clip-rule="evenodd" d="M477.449 358.904C478.647 358.9 479.615 357.925 479.611 356.726C479.607 355.526 478.634 354.557 477.436 354.561C476.238 354.565 475.27 355.54 475.274 356.739C475.277 357.939 476.251 358.908 477.449 358.904Z" fill="black"/>
<path d="M546.538 498.642L556.531 441.377H482.656L494.719 498.642H546.538Z" fill="#FEFEFE" stroke="black" stroke-width="1.2"/>
<path d="M538.346 460.765L500.936 460.795" stroke="black" stroke-width="1.2"/>
<path fill-rule="evenodd" clip-rule="evenodd" d="M81.9771 450.387C81.9771 450.387 110.683 406.181 83.2951 366.033C63.8148 337.476 41.3062 334.024 36.8291 331.563C10.0067 316.819 27.5125 410.239 81.9771 450.387Z" fill="#00E595"/>
<path fill-rule="evenodd" clip-rule="evenodd" d="M84.2279 499.918C84.5499 499.918 84.865 499.763 85.0571 499.475C85.7679 498.409 86.0326 480.597 83.2697 457.827C80.674 436.435 74.6858 404.807 60.9006 375.614C60.6651 375.118 60.0723 374.906 59.5751 375.139C59.0783 375.374 58.8653 375.968 59.1002 376.465C72.6018 405.056 78.5497 436.039 81.1613 456.995C84.1109 480.658 83.6012 497.126 83.3081 498.544C83.1304 498.974 83.2747 499.483 83.6769 499.751C83.8466 499.864 84.0382 499.918 84.2279 499.918Z" fill="#141414"/>
<path fill-rule="evenodd" clip-rule="evenodd" d="M134.692 415.856C130.366 415.301 120.946 418.483 111.643 432.135C98.5644 451.328 101.675 474.9 111.889 477.173L111.649 477.115C109.524 490.858 110.444 498.974 110.851 499.586C110.995 499.802 111.232 499.919 111.474 499.919C111.617 499.919 111.76 499.878 111.888 499.793C112.195 499.589 112.302 499.195 112.157 498.869C111.98 498.189 111.233 491.584 112.705 480.271C112.823 479.364 112.958 478.407 113.113 477.403L113.115 477.408C142.145 482.071 144.706 417.142 134.692 415.856Z" fill="#FFAF2C"/>
<path fill-rule="evenodd" clip-rule="evenodd" d="M42.1372 482.025C50.1809 480.237 52.6303 461.693 42.3308 446.595C35.0051 435.856 27.5866 433.352 24.1799 433.789C16.1844 434.815 18.3692 487.307 42.1372 482.025Z" fill="#00E595"/>
<path fill-rule="evenodd" clip-rule="evenodd" d="M41.2607 499.918C41.1485 499.918 41.0352 499.887 40.9348 499.819C40.6929 499.659 40.6087 499.349 40.7226 499.092C40.8621 498.557 41.4508 493.361 40.2914 484.462C39.2446 476.429 36.4959 463.459 29.3426 447.279C29.2113 446.981 29.3455 446.634 29.6428 446.503C29.9392 446.371 30.2878 446.505 30.4193 446.803C44.2767 478.147 42.3372 498.776 41.7511 499.656C41.6378 499.827 41.4511 499.918 41.2607 499.918Z" fill="#141414"/>
</svg>
