<svg width="50" height="50" viewBox="0 0 50 50" fill="none" xmlns="http://www.w3.org/2000/svg">
<mask id="mask0" mask-type="alpha" maskUnits="userSpaceOnUse" x="0" y="0" width="50" height="50">
<circle cx="25" cy="25" r="25" fill="#00E595"/>
</mask>
<g mask="url(#mask0)">
<circle cx="25" cy="25" r="25" fill="#20D7FF"/>
<path opacity="0.3" d="M7 24C7 21.2386 9.23858 19 12 19H19V49C19 51.7614 16.7614 54 14 54H12C9.23858 54 7 51.7614 7 49V24Z" fill="white"/>
<path opacity="0.5" d="M19 18C19 15.2386 21.2386 13 24 13H31V49C31 51.7614 28.7614 54 26 54H24C21.2386 54 19 51.7614 19 49V18Z" fill="white"/>
<rect opacity="0.75" x="31" y="9" width="30" height="45" rx="5" fill="white"/>
</g>
</svg>
