<svg width="20" height="20" viewBox="0 0 20 20" fill="none" xmlns="http://www.w3.org/2000/svg">
<path d="M17 4.3604C16.3906 4.79025 15.7159 5.11902 15.0018 5.33404C14.6186 4.89336 14.1092 4.58103 13.5427 4.43927C12.9761 4.29751 12.3797 4.33316 11.8341 4.54142C11.2884 4.74967 10.8199 5.12048 10.4919 5.60368C10.1639 6.08688 9.99217 6.65916 10 7.24313V7.87949C8.88168 7.90849 7.77354 7.66047 6.77428 7.15751C5.77502 6.65454 4.91566 5.91226 4.27273 4.99677C4.27273 4.99677 1.72727 10.724 7.45455 13.2695C6.14397 14.1591 4.58274 14.6052 3 14.5422C8.72727 17.724 15.7273 14.5422 15.7273 7.22404C15.7267 7.04678 15.7096 6.86996 15.6764 6.69586C16.3258 6.05535 16.7842 5.24667 17 4.3604Z" fill="#55586F"/>
</svg>
