<svg width="1301" height="271" viewBox="0 0 1301 271" fill="none" xmlns="http://www.w3.org/2000/svg">
<path d="M198.101 223.962C198.007 223.377 198.249 222.788 198.729 222.438C199.208 222.089 199.843 222.039 200.371 222.308C209.379 226.89 218.84 230.52 228.601 233.136C229.137 233.279 229.708 233.133 230.108 232.749C234.35 228.676 238.325 224.334 242.008 219.749C242.361 219.308 242.453 218.714 242.251 218.187C238.594 208.698 233.949 199.62 228.394 191.102C228.07 190.606 228.052 189.969 228.348 189.456C228.643 188.942 229.202 188.637 229.794 188.668C232.348 188.801 234.893 188.868 237.43 188.868C245.213 188.867 252.984 188.236 260.665 186.983C261.209 186.894 261.668 186.529 261.877 186.019C264.02 180.771 265.83 175.394 267.297 169.919C267.442 169.374 267.287 168.794 266.891 168.393C259.558 161.003 251.451 154.424 242.709 148.769C242.211 148.447 241.937 147.873 241.998 147.283C242.059 146.694 242.447 146.188 243 145.976C252.878 142.183 262.311 137.321 271.131 131.476C271.589 131.171 271.857 130.652 271.84 130.102C271.659 124.665 271.153 119.243 270.326 113.866C270.24 113.31 269.866 112.842 269.343 112.635C259.427 108.725 249.11 105.92 238.579 104.271C237.994 104.179 237.509 103.766 237.325 103.202C237.142 102.638 237.29 102.019 237.709 101.6C245.378 93.9367 252.165 85.4384 257.941 76.264C258.234 75.7979 258.264 75.2138 258.021 74.72C255.562 69.7265 252.798 64.8891 249.745 60.235L249.677 60.365C238.537 60.7355 227.477 62.3891 216.716 65.293L216.274 65.413C215.703 65.5703 215.092 65.3925 214.695 64.9532C214.298 64.514 214.182 63.8884 214.395 63.336C214.449 63.193 214.504 63.05 214.558 62.908C218.469 52.624 221.199 41.9286 222.693 31.028C222.979 30.91 223.268 30.799 223.555 30.683C218.859 26.7197 213.9 23.0781 208.713 19.783L208.678 19.804C208.703 20.4136 208.366 20.9804 207.818 21.25C198.233 26.0121 189.205 31.8201 180.897 38.568L180.541 38.858C180.083 39.2338 179.453 39.3196 178.911 39.0798C178.37 38.84 178.01 38.3155 177.98 37.724C177.972 37.571 177.964 37.419 177.955 37.266C177.366 26.6138 175.604 16.0591 172.701 5.793C172.547 5.24883 172.7 4.66366 173.101 4.265C173.216 4.15 173.332 4.035 173.445 3.918C167.37 2.18078 161.18 0.871569 154.921 0L154.861 0.109C155.283 0.679561 155.26 1.46475 154.804 2.009C148.007 10.2386 142.138 19.1927 137.304 28.709L137.097 29.117C136.832 29.6461 136.291 29.9806 135.699 29.9819C135.107 29.9831 134.565 29.6509 134.297 29.123L134.089 28.715C129.207 19.1938 123.287 10.2417 116.436 2.022C116.077 1.59374 115.974 1.00574 116.167 0.481C116.216 0.35 116.267 0.22 116.312 0.089C110.121 0.983332 104 2.30618 97.9922 4.048L97.9832 4.13C98.5514 4.49713 98.8135 5.19209 98.6292 5.843C95.7507 16.1483 94.0212 26.7404 93.4722 37.426L93.4482 37.884C93.4209 38.4756 93.0625 39.0014 92.5218 39.2431C91.9811 39.4848 91.3503 39.4012 90.8912 39.027L90.5352 38.739C82.2271 32.0435 73.2059 26.2847 63.6352 21.567C63.1326 21.3215 62.8005 20.8252 62.7652 20.267C62.7592 20.186 62.7542 20.105 62.7492 20.024C57.5516 23.3518 52.5858 27.0286 47.8862 31.029C48.1612 31.138 48.4372 31.243 48.7112 31.355C50.2466 42.249 53.0161 52.933 56.9662 63.201L57.1312 63.629C57.3476 64.1806 57.2343 64.8071 56.8384 65.248C56.4426 65.6889 55.8319 65.8689 55.2602 65.713L54.8172 65.595C44.214 62.7768 33.3255 61.1702 22.3602 60.806C22.2652 60.63 22.1752 60.452 22.0802 60.275C18.8057 65.2725 15.8643 70.4804 13.2752 75.865C13.3842 75.865 13.4932 75.854 13.6022 75.851C19.4349 85.1811 26.3094 93.8179 34.0932 101.595L34.4182 101.919C34.8396 102.335 34.9904 102.954 34.8078 103.517C34.6253 104.081 34.1407 104.494 33.5552 104.584L33.1022 104.656C22.5994 106.341 12.3138 109.177 2.43122 113.112C1.90831 113.321 1.53555 113.791 1.45222 114.348C0.643443 119.749 0.158909 125.195 0.000583117 130.654C-0.0142804 131.204 0.255842 131.723 0.715216 132.025C9.54002 137.818 18.9709 142.631 28.8402 146.378C29.3944 146.589 29.7833 147.093 29.8466 147.682C29.91 148.271 29.637 148.846 29.1402 149.17C20.4403 154.845 12.3751 161.438 5.08322 168.836C4.6877 169.238 4.53537 169.819 4.68322 170.363C6.17121 175.852 8.00487 181.242 10.1732 186.5C10.3844 187.01 10.8452 187.373 11.3902 187.46C18.8739 188.649 26.4396 189.247 34.0172 189.248C36.7372 189.248 39.4672 189.172 42.2072 189.019C42.7993 188.986 43.3599 189.288 43.6576 189.801C43.9553 190.314 43.9397 190.95 43.6172 191.448C38.1039 199.97 33.5007 209.048 29.8832 218.531C29.6824 219.058 29.7769 219.652 30.1312 220.091C33.8385 224.678 37.8388 229.021 42.1072 233.091C42.5089 233.473 43.081 233.618 43.6162 233.473C53.3499 230.819 62.7806 227.157 71.7552 222.548C72.2825 222.277 72.9174 222.325 73.3979 222.672C73.8784 223.02 74.1232 223.607 74.0312 224.193C72.4824 234.072 71.959 244.084 72.4692 254.071C72.4978 254.632 72.8217 255.136 73.3202 255.395C78.6596 258.17 84.1782 260.585 89.8392 262.625C90.3643 262.813 90.9494 262.712 91.3812 262.359C99.0908 256.036 106.128 248.935 112.381 241.169C112.753 240.707 113.352 240.493 113.933 240.615C114.513 240.737 114.975 241.175 115.129 241.747C117.711 251.333 121.269 260.629 125.749 269.489C126.001 269.987 126.498 270.316 127.055 270.352C129.989 270.542 132.946 270.639 135.926 270.644C139.06 270.644 142.166 270.538 145.244 270.327C145.803 270.289 146.3 269.958 146.55 269.457C150.998 260.578 154.523 251.266 157.068 241.667C157.22 241.094 157.681 240.654 158.261 240.53C158.841 240.406 159.442 240.618 159.815 241.078C166.103 248.827 173.174 255.907 180.915 262.204C181.348 262.555 181.933 262.654 182.457 262.464C188.103 260.408 193.606 257.977 198.928 255.189C199.426 254.928 199.748 254.423 199.775 253.861C200.25 243.864 199.689 233.844 198.101 223.962ZM247.184 170.715C248.274 171.622 247.702 173.404 246.284 173.502C243.341 173.702 240.382 173.804 237.407 173.808C235.137 173.808 232.853 173.749 230.57 173.631C224.883 173.334 219.222 172.666 213.622 171.631C213.293 171.57 212.991 171.405 212.763 171.159C208.416 166.512 203.762 162.161 198.833 158.135C198.332 157.729 198.133 157.055 198.332 156.442C198.532 155.828 199.089 155.401 199.733 155.367C206.085 154.989 212.404 154.187 218.649 152.967C218.978 152.902 219.319 152.945 219.622 153.088C229.511 157.788 238.771 163.709 247.186 170.714L247.184 170.715ZM236.244 119.141C241.423 119.952 246.548 121.074 251.591 122.5C252.958 122.887 253.155 124.749 251.9 125.414C242.227 130.533 231.951 134.42 221.312 136.985C220.986 137.062 220.644 137.033 220.335 136.902C214.47 134.421 208.445 132.336 202.301 130.661C201.679 130.494 201.224 129.96 201.156 129.319C201.088 128.678 201.422 128.062 201.995 127.768C207.647 124.843 213.098 121.543 218.309 117.89C218.583 117.698 218.911 117.598 219.246 117.605C224.94 117.747 230.618 118.26 236.244 119.141ZM237.316 79.287C230.575 87.8684 222.78 95.5672 214.116 102.202C213.85 102.404 213.526 102.517 213.191 102.523C206.753 102.647 200.331 103.207 193.969 104.199C193.333 104.301 192.699 104 192.375 103.442C192.052 102.885 192.104 102.186 192.508 101.683C196.413 96.7832 199.991 91.6318 203.219 86.262C203.39 85.9762 203.648 85.7521 203.954 85.622C214.166 81.3174 224.886 78.3362 235.854 76.751C237.254 76.548 238.193 78.171 237.316 79.287ZM177.101 63.104C177.141 62.7729 177.285 62.4631 177.513 62.22C184.991 54.265 193.435 47.2774 202.649 41.42C203.849 40.657 205.373 41.759 205.025 43.138C202.35 53.7232 198.36 63.9319 193.149 73.526C192.99 73.8185 192.741 74.0525 192.439 74.194C186.739 76.8822 181.223 79.9449 175.927 83.362C175.387 83.7128 174.686 83.6951 174.164 83.3175C173.642 82.94 173.405 82.2802 173.569 81.657C175.154 75.5573 176.334 69.3594 177.101 63.104ZM81.0922 50.462C85.6589 54.1402 89.9733 58.1212 94.0062 62.378C94.2346 62.6206 94.3799 62.9294 94.4212 63.26C95.2108 69.5127 96.4135 75.7062 98.0212 81.8C98.1876 82.4228 97.9538 83.0837 97.4328 83.4633C96.9119 83.8429 96.2111 83.8631 95.6692 83.514C90.3935 80.1386 84.9013 77.114 79.2282 74.46C78.9267 74.3194 78.6777 74.0865 78.5172 73.795C73.2567 64.2274 69.2226 54.0351 66.5102 43.459C66.1562 42.08 67.6772 40.972 68.8802 41.732C73.1147 44.4057 77.1921 47.3205 81.0922 50.462ZM34.7852 79.675C33.9022 78.559 34.8412 76.929 36.2492 77.134C47.0189 78.7037 57.5508 81.6101 67.6012 85.786C67.9088 85.9143 68.1674 86.1375 68.3392 86.423C71.6033 91.8142 75.2206 96.9835 79.1672 101.897C79.5722 102.398 79.6273 103.097 79.3057 103.656C78.9841 104.214 78.3521 104.518 77.7152 104.419C71.5234 103.48 65.2766 102.949 59.0152 102.83C58.6827 102.825 58.3605 102.713 58.0952 102.513C49.397 95.9094 41.5654 88.2363 34.7852 79.675ZM20.3522 122.956C31.0063 119.907 42.0064 118.232 53.0852 117.972C53.418 117.965 53.7444 118.063 54.0172 118.254C59.1609 121.827 64.5338 125.058 70.1012 127.926C70.6757 128.219 71.0109 128.835 70.9444 129.476C70.8779 130.117 70.4235 130.651 69.8012 130.82C63.592 132.524 57.5051 134.646 51.5822 137.171C51.2746 137.302 50.9331 137.333 50.6072 137.257C39.9843 134.759 29.7182 130.934 20.0512 125.871C18.8012 125.213 18.9872 123.348 20.3522 122.956ZM41.3702 173.989C36.1736 174.279 30.9644 174.259 25.7702 173.929C24.3532 173.838 23.7702 172.058 24.8552 171.145C33.2429 164.105 42.4864 158.152 52.3662 153.429C52.6686 153.285 53.0093 153.241 53.3382 153.305C59.547 154.489 65.8275 155.259 72.1382 155.612C72.7816 155.646 73.3379 156.072 73.5386 156.684C73.7392 157.296 73.5428 157.969 73.0442 158.377C68.132 162.42 63.4956 166.786 59.1662 171.448C58.9389 171.694 58.6389 171.86 58.3102 171.923C52.7145 172.98 47.0558 173.67 41.3702 173.989ZM64.8792 209.156C60.2176 211.55 55.4163 213.663 50.5012 215.481C49.1692 215.973 47.9122 214.581 48.5352 213.308C53.3361 203.47 59.355 194.275 66.4502 185.939C66.6676 185.684 66.961 185.506 67.2872 185.43C73.484 183.98 79.577 182.118 85.5252 179.855C86.1269 179.624 86.8085 179.787 87.2407 180.265C87.673 180.743 87.767 181.437 87.4772 182.013C84.6321 187.705 82.1713 193.582 80.1112 199.603C80.0031 199.92 79.7964 200.195 79.5212 200.386C74.8368 203.625 69.9457 206.555 64.8792 209.156ZM100.654 231.73C97.3903 235.785 93.8875 239.641 90.1642 243.279C89.1492 244.271 87.4342 243.514 87.4842 242.095C87.8707 231.155 89.6373 220.307 92.7422 209.809C92.8389 209.49 93.0343 209.21 93.3002 209.009C98.3372 205.185 103.114 201.03 107.6 196.572C108.056 196.117 108.745 195.988 109.334 196.249C109.923 196.509 110.292 197.105 110.261 197.749C109.976 204.107 110.116 210.476 110.681 216.815C110.712 217.149 110.635 217.483 110.461 217.77C107.499 222.632 104.223 227.295 100.654 231.73ZM109.161 56.669C108.942 56.4171 108.809 56.1018 108.781 55.769C107.879 44.8874 108.342 33.9356 110.159 23.169C110.396 21.769 112.235 21.369 113.026 22.555C115.83 26.7469 118.39 31.0971 120.693 35.584C123.37 40.801 125.694 46.1922 127.647 51.721C127.758 52.0355 127.765 52.377 127.668 52.696C125.849 58.7289 124.431 64.8757 123.423 71.096C123.323 71.733 122.84 72.2423 122.21 72.3777C121.579 72.5131 120.93 72.2465 120.577 71.707C117.108 66.4477 113.294 61.4241 109.161 56.669ZM142.516 237.812C141.173 242.879 139.527 247.86 137.586 252.729C137.06 254.048 135.186 254.052 134.656 252.734C130.564 242.581 127.763 231.954 126.319 221.103C126.276 220.771 126.34 220.433 126.502 220.14C129.574 214.567 132.27 208.794 134.571 202.861C134.802 202.259 135.38 201.862 136.024 201.861C136.669 201.859 137.248 202.254 137.481 202.855C139.805 208.78 142.523 214.542 145.616 220.104C145.779 220.397 145.844 220.734 145.802 221.066C145.073 226.714 143.975 232.308 142.516 237.812ZM148.13 71.057C147.105 64.8777 145.675 58.7725 143.848 52.781C143.751 52.463 143.757 52.1224 143.865 51.808C147.438 41.5264 152.288 31.7341 158.301 22.661C159.087 21.475 160.929 21.861 161.17 23.261C163.018 33.9882 163.51 44.905 162.636 55.755C162.61 56.0873 162.478 56.4025 162.26 56.655C158.174 61.402 154.404 66.4129 150.976 71.655C150.625 72.1941 149.978 72.462 149.349 72.3297C148.719 72.1974 148.235 71.6919 148.13 71.057ZM161.43 216.6C161.962 210.297 162.075 203.966 161.767 197.648C161.734 197.005 162.1 196.407 162.688 196.144C163.276 195.881 163.966 196.007 164.423 196.46C168.955 200.928 173.78 205.088 178.867 208.912C179.135 209.112 179.332 209.392 179.429 209.712C182.551 220.166 184.352 230.97 184.789 241.872C184.846 243.291 183.136 244.058 182.115 243.072C174.248 235.459 167.374 226.884 161.656 217.548C161.483 217.264 161.404 216.932 161.432 216.6H161.43ZM186.441 179.664C192.398 181.902 198.498 183.74 204.7 185.164C205.027 185.238 205.321 185.416 205.539 185.67C212.665 193.979 218.719 203.151 223.557 212.97C224.185 214.244 222.934 215.637 221.6 215.15C211.319 211.392 201.55 206.358 192.523 200.165C192.247 199.975 192.039 199.701 191.93 199.384C189.848 193.373 187.367 187.508 184.501 181.829C184.21 181.255 184.302 180.561 184.731 180.082C185.161 179.603 185.841 179.437 186.443 179.664H186.441Z" fill="white"/>
<path d="M399.21 232.368V114.826C399.21 107.602 400.613 101.291 403.417 95.8944C406.222 90.4975 410.025 86.2904 414.827 83.2733C419.629 80.2561 425.047 78.7475 431.082 78.7475C440.006 78.7475 447.209 81.5947 452.69 87.2891C458.172 92.9834 460.913 100.633 460.913 110.237V232.368H513.565V112.786C513.565 102.587 516.327 94.3645 521.852 88.1177C527.376 81.8709 535.068 78.7475 544.926 78.7475C553.595 78.7475 560.82 81.4672 566.599 86.9066C572.378 92.346 575.268 100.505 575.268 111.384V232.368H629.45V100.675C629.45 79.4274 623.734 63.003 612.303 51.4018C600.871 39.8006 586.019 34 567.746 34C553.383 34 540.953 37.3784 530.457 44.1351C519.961 50.8919 512.715 59.8796 508.72 71.0984H506.681C503.536 59.7096 497.247 50.6794 487.813 44.0076C478.379 37.3359 466.948 34 453.519 34C440.261 34 428.872 37.3146 419.353 43.9439C409.834 50.5732 403.035 59.6246 398.955 71.0984H396.66V36.5497H344.901V232.368H399.21ZM760.759 236.192C780.562 236.192 797.666 231.964 812.072 223.508C826.478 215.051 837.591 203.237 845.41 188.067C853.229 172.896 857.139 155.281 857.139 135.224C857.139 114.996 853.229 97.2967 845.41 82.1259C837.591 66.9551 826.478 55.1414 812.072 46.6848C797.666 38.2283 780.562 34 760.759 34C740.956 34 723.852 38.2283 709.446 46.6848C695.04 55.1414 683.928 66.9551 676.109 82.1259C668.29 97.2967 664.38 114.996 664.38 135.224C664.38 155.281 668.29 172.896 676.109 188.067C683.928 203.237 695.04 215.051 709.446 223.508C723.852 231.964 740.956 236.192 760.759 236.192ZM761.014 194.122C751.92 194.122 744.292 191.551 738.131 186.409C731.969 181.267 727.337 174.234 724.235 165.31C721.132 156.386 719.581 146.23 719.581 134.841C719.581 123.453 721.132 113.296 724.235 104.372C727.337 95.4482 731.969 88.3939 738.131 83.2095C744.292 78.0251 751.92 75.4329 761.014 75.4329C770.023 75.4329 777.545 78.0251 783.579 83.2095C789.614 88.3939 794.182 95.4482 797.284 104.372C800.386 113.296 801.937 123.453 801.937 134.841C801.937 146.23 800.386 156.386 797.284 165.31C794.182 174.234 789.614 181.267 783.579 186.409C777.545 191.551 770.023 194.122 761.014 194.122ZM946.888 232.368V119.161C946.973 110.746 948.567 103.543 951.669 97.5517C954.771 91.5598 959.106 86.9916 964.673 83.8469C970.239 80.7023 976.677 79.13 983.987 79.13C994.865 79.13 1003.41 82.5083 1009.61 89.2651C1015.82 96.0218 1018.88 105.392 1018.79 117.376V232.368H1073.1V107.687C1073.1 92.4735 1070.29 79.3637 1064.69 68.3574C1059.08 57.3511 1051.21 48.8733 1041.1 42.924C1030.99 36.9747 1019.13 34 1005.53 34C990.998 34 978.632 37.3359 968.433 44.0076C958.235 50.6794 950.968 59.7096 946.633 71.0984H944.339V36.5497H892.579V232.368H946.888ZM1204.31 236.192C1224.11 236.192 1241.21 231.964 1255.62 223.508C1270.03 215.051 1281.14 203.237 1288.96 188.067C1296.78 172.896 1300.69 155.281 1300.69 135.224C1300.69 114.996 1296.78 97.2967 1288.96 82.1259C1281.14 66.9551 1270.03 55.1414 1255.62 46.6848C1241.21 38.2283 1224.11 34 1204.31 34C1184.5 34 1167.4 38.2283 1152.99 46.6848C1138.59 55.1414 1127.48 66.9551 1119.66 82.1259C1111.84 97.2967 1107.93 114.996 1107.93 135.224C1107.93 155.281 1111.84 172.896 1119.66 188.067C1127.48 203.237 1138.59 215.051 1152.99 223.508C1167.4 231.964 1184.5 236.192 1204.31 236.192ZM1204.56 194.122C1195.47 194.122 1187.84 191.551 1181.68 186.409C1175.52 181.267 1170.88 174.234 1167.78 165.31C1164.68 156.386 1163.13 146.23 1163.13 134.841C1163.13 123.453 1164.68 113.296 1167.78 104.372C1170.88 95.4482 1175.52 88.3939 1181.68 83.2095C1187.84 78.0251 1195.47 75.4329 1204.56 75.4329C1213.57 75.4329 1221.09 78.0251 1227.13 83.2095C1233.16 88.3939 1237.73 95.4482 1240.83 104.372C1243.93 113.296 1245.48 123.453 1245.48 134.841C1245.48 146.23 1243.93 156.386 1240.83 165.31C1237.73 174.234 1233.16 181.267 1227.13 186.409C1221.09 191.551 1213.57 194.122 1204.56 194.122Z" fill="white"/>
</svg>
